<?xml version="1.0" encoding="UTF-8" standalone="no"?>
<!-- Created with Inkscape (http://www.inkscape.org/) -->

<svg
   xmlns:dc="http://purl.org/dc/elements/1.1/"
   xmlns:cc="http://creativecommons.org/ns#"
   xmlns:rdf="http://www.w3.org/1999/02/22-rdf-syntax-ns#"
   xmlns:svg="http://www.w3.org/2000/svg"
   xmlns="http://www.w3.org/2000/svg"
   xmlns:sodipodi="http://sodipodi.sourceforge.net/DTD/sodipodi-0.dtd"
   xmlns:inkscape="http://www.inkscape.org/namespaces/inkscape"
   width="8mm"
   height="8mm"
   viewBox="0 0 8 7.9999999"
   version="1.1"
   id="svg16908"
   inkscape:version="0.92.4 (5da689c313, 2019-01-14)"
   sodipodi:docname="Davies1900hRedSmall.svg">
  <defs
     id="defs16902">
    <clipPath
       clipPathUnits="userSpaceOnUse"
       id="clipPath6367">
      <path
         d="M 0,3193 H 2089 V 0 H 0 Z"
         id="path6365"
         inkscape:connector-curvature="0" />
    </clipPath>
  </defs>
  <sodipodi:namedview
     id="base"
     pagecolor="#ffffff"
     bordercolor="#666666"
     borderopacity="1.0"
     inkscape:pageopacity="0.0"
     inkscape:pageshadow="2"
     inkscape:zoom="15.839192"
     inkscape:cx="14.878484"
     inkscape:cy="2.3831228"
     inkscape:document-units="mm"
     inkscape:current-layer="layer1"
     showgrid="false"
     fit-margin-top="0"
     fit-margin-left="0"
     fit-margin-right="0"
     fit-margin-bottom="0"
     inkscape:window-width="1858"
     inkscape:window-height="1057"
     inkscape:window-x="54"
     inkscape:window-y="-8"
     inkscape:window-maximized="1"
     units="mm" />
  <metadata
     id="metadata16905">
    <rdf:RDF>
      <cc:Work
         rdf:about="">
        <dc:format>image/svg+xml</dc:format>
        <dc:type
           rdf:resource="http://purl.org/dc/dcmitype/StillImage" />
        <dc:title />
      </cc:Work>
    </rdf:RDF>
  </metadata>
  <g
     inkscape:label="Layer 1"
     inkscape:groupmode="layer"
     id="layer1"
     transform="translate(-231.61419,-124.57606)"
     style="display:inline">
    <path
       inkscape:connector-curvature="0"
       id="path6457"
       style="display:inline;fill:#ff0000;fill-opacity:1;fill-rule:nonzero;stroke:none;stroke-width:0.29628971"
       d="m 239.61409,128.57612 c 0,2.20899 -1.79087,3.99978 -3.99996,3.99978 -2.20908,0 -3.99995,-1.79079 -3.99995,-3.99978 0,-2.20899 1.79087,-3.99978 3.99995,-3.99978 2.20909,0 3.99996,1.79079 3.99996,3.99978" />
    <path
       inkscape:connector-curvature="0"
       id="path6461"
       style="display:inline;fill:#ff0000;fill-opacity:1;fill-rule:evenodd;stroke:none;stroke-width:0.29628971"
       d="m 239.59152,128.15341 c -0.17555,-0.28421 -0.47111,-0.56375 -0.63555,-0.9615 -0.16444,-0.39642 -0.15355,-0.80196 -0.22955,-1.12594 -0.17889,-0.22154 -0.38022,-0.42264 -0.60199,-0.60174 -0.32422,-0.0758 -0.72933,-0.0651 -1.12621,-0.22955 -0.39778,-0.16488 -0.67733,-0.45975 -0.9611,-0.63552 -0.13889,-0.0147 -0.28,-0.0231 -0.42267,-0.0231 -0.14311,0 -0.28422,0.008 -0.42288,0.0231 -0.28422,0.17577 -0.56377,0.47064 -0.96155,0.63552 -0.39644,0.16444 -0.80154,0.15377 -1.12598,0.22955 -0.22156,0.1791 -0.42311,0.3802 -0.60177,0.60174 -0.076,0.32398 -0.0653,0.72952 -0.23,1.12594 -0.16444,0.39775 -0.45977,0.67729 -0.63511,0.9615 -0.0147,0.13888 -0.0229,0.27998 -0.0229,0.42264 0,0.14288 0.008,0.28399 0.0229,0.42331 0.17534,0.28377 0.47067,0.56331 0.63511,0.96106 0.16466,0.39642 0.154,0.80196 0.23,1.12572 0.17866,0.22176 0.38021,0.42308 0.60177,0.60196 0.32444,0.076 0.72954,0.0651 1.12598,0.22932 0.39778,0.16511 0.67733,0.4602 0.96155,0.63575 0.13866,0.0144 0.27977,0.0229 0.42288,0.0229 0.14267,0 0.28378,-0.008 0.42267,-0.0229 0.28377,-0.17555 0.56332,-0.47064 0.9611,-0.63575 0.39688,-0.16421 0.80199,-0.15332 1.12621,-0.22932 0.22177,-0.17888 0.4231,-0.3802 0.60199,-0.60196 0.076,-0.32376 0.0651,-0.7293 0.22955,-1.12572 0.16444,-0.39775 0.46,-0.67729 0.63555,-0.96106 0.0144,-0.13932 0.0227,-0.28043 0.0227,-0.42331 0,-0.14266 -0.008,-0.28376 -0.0227,-0.42264" />
    <path
       inkscape:connector-curvature="0"
       id="path6465"
       style="display:inline;fill:#f9f9f9;fill-opacity:1;fill-rule:evenodd;stroke:none;stroke-width:0.29628971"
       d="m 235.74716,124.59154 c -0.0433,-0.01 -0.0873,-0.0153 -0.13289,-0.0153 -0.0458,0 -0.0898,0.005 -0.13288,0.0153 v 4.03466 h 0.26577 z" />
  </g>
</svg>
