<?xml version="1.0" encoding="UTF-8" standalone="no"?>
<!-- Created with Inkscape (http://www.inkscape.org/) -->

<svg
   xmlns:dc="http://purl.org/dc/elements/1.1/"
   xmlns:cc="http://creativecommons.org/ns#"
   xmlns:rdf="http://www.w3.org/1999/02/22-rdf-syntax-ns#"
   xmlns:svg="http://www.w3.org/2000/svg"
   xmlns="http://www.w3.org/2000/svg"
   xmlns:sodipodi="http://sodipodi.sourceforge.net/DTD/sodipodi-0.dtd"
   xmlns:inkscape="http://www.inkscape.org/namespaces/inkscape"
   width="21.140079mm"
   height="13.240544mm"
   viewBox="0 0 21.140079 13.240544"
   version="1.1"
   id="svg16908"
   inkscape:version="0.92.4 (5da689c313, 2019-01-14)"
   sodipodi:docname="rangeOut.svg">
  <defs
     id="defs16902">
    <clipPath
       clipPathUnits="userSpaceOnUse"
       id="clipPath6367">
      <path
         d="M 0,3193 H 2089 V 0 H 0 Z"
         id="path6365"
         inkscape:connector-curvature="0" />
    </clipPath>
    <clipPath
       id="clipPath6367-3"
       clipPathUnits="userSpaceOnUse">
      <path
         inkscape:connector-curvature="0"
         id="path6365-9"
         d="M 0,3193 H 2089 V 0 H 0 Z" />
    </clipPath>
    <clipPath
       id="clip89">
      <rect
         id="rect4864"
         height="19"
         width="18"
         x="0"
         y="0" />
    </clipPath>
    <clipPath
       id="clip90">
      <path
         id="path4861"
         d="m 0.898438,0.128906 h 16.25 v 17.882813 h -16.25 z m 0,0"
         inkscape:connector-curvature="0" />
    </clipPath>
    <mask
       id="mask44">
      <g
         transform="matrix(0.26458333,0,0,0.26458333,89.358789,128.57765)"
         id="g4858"
         style="filter:url(#alpha)">
        <rect
           id="rect4856"
           style="fill:#000000;fill-opacity:0.14999402;stroke:none"
           height="3351.5"
           width="3052.8701"
           y="0"
           x="0" />
      </g>
    </mask>
    <filter
       height="1"
       width="1"
       y="0"
       x="0"
       filterUnits="objectBoundingBox"
       id="alpha">
      <feColorMatrix
         id="feColorMatrix4149"
         values="0 0 0 0 1 0 0 0 0 1 0 0 0 0 1 0 0 0 1 0"
         in="SourceGraphic"
         type="matrix" />
    </filter>
    <clipPath
       id="clipPath17821">
      <rect
         id="rect17819"
         height="19"
         width="18"
         x="0"
         y="0" />
    </clipPath>
    <clipPath
       id="clipPath17825">
      <path
         id="path17823"
         d="m 0.898438,0.128906 h 16.25 v 17.882813 h -16.25 z m 0,0"
         inkscape:connector-curvature="0" />
    </clipPath>
    <clipPath
       id="clip87">
      <rect
         id="rect4848"
         height="26"
         width="24"
         x="0"
         y="0" />
    </clipPath>
    <clipPath
       id="clip88">
      <path
         id="path4845"
         d="m 0.683594,0.921875 h 22.679687 v 24.9375 H 0.683594 Z m 0,0"
         inkscape:connector-curvature="0" />
    </clipPath>
    <mask
       id="mask43">
      <g
         transform="matrix(0.26458333,0,0,0.26458333,89.358789,128.57765)"
         id="g4842"
         style="filter:url(#alpha)">
        <rect
           id="rect4840"
           style="fill:#000000;fill-opacity:0.14999402;stroke:none"
           height="3351.5"
           width="3052.8701"
           y="0"
           x="0" />
      </g>
    </mask>
    <filter
       height="1"
       width="1"
       y="0"
       x="0"
       filterUnits="objectBoundingBox"
       id="filter17836">
      <feColorMatrix
         id="feColorMatrix17834"
         values="0 0 0 0 1 0 0 0 0 1 0 0 0 0 1 0 0 0 1 0"
         in="SourceGraphic"
         type="matrix" />
    </filter>
    <clipPath
       id="clipPath17840">
      <rect
         id="rect17838"
         height="26"
         width="24"
         x="0"
         y="0" />
    </clipPath>
    <clipPath
       id="clipPath17844">
      <path
         id="path17842"
         d="m 0.683594,0.921875 h 22.679687 v 24.9375 H 0.683594 Z m 0,0"
         inkscape:connector-curvature="0" />
    </clipPath>
  </defs>
  <sodipodi:namedview
     id="base"
     pagecolor="#ffffff"
     bordercolor="#666666"
     borderopacity="1.0"
     inkscape:pageopacity="0.0"
     inkscape:pageshadow="2"
     inkscape:zoom="5.6"
     inkscape:cx="-10.219972"
     inkscape:cy="12.42425"
     inkscape:document-units="mm"
     inkscape:current-layer="layer3"
     showgrid="false"
     fit-margin-top="0"
     fit-margin-left="0"
     fit-margin-right="0"
     fit-margin-bottom="0"
     inkscape:window-width="1858"
     inkscape:window-height="1057"
     inkscape:window-x="54"
     inkscape:window-y="-8"
     inkscape:window-maximized="1"
     units="mm" />
  <metadata
     id="metadata16905">
    <rdf:RDF>
      <cc:Work
         rdf:about="">
        <dc:format>image/svg+xml</dc:format>
        <dc:type
           rdf:resource="http://purl.org/dc/dcmitype/StillImage" />
        <dc:title />
      </cc:Work>
    </rdf:RDF>
  </metadata>
  <g
     inkscape:groupmode="layer"
     id="layer1"
     inkscape:label="sfondone"
     transform="translate(3.441772,-23.320513)">
    <rect
       style="fill:#666666;stroke:none;stroke-width:1.2671237;stroke-linecap:round;stroke-linejoin:round;stroke-miterlimit:4;stroke-dasharray:none"
       id="rect822"
       width="21.140079"
       height="13.240544"
       x="-3.441772"
       y="23.320513"
       rx="0.98716366"
       ry="0.83260584" />
  </g>
  <g
     inkscape:groupmode="layer"
     id="layer2"
     inkscape:label="testo"
     style="display:inline"
     transform="translate(3.441772,-23.320513)"
     sodipodi:insensitive="true">
    <g
       id="g1160"
       transform="translate(-0.02230726,-0.15999304)">
      <g
         id="g1167">
        <g
           aria-label="output"
           style="font-style:italic;font-variant:normal;font-weight:normal;font-stretch:normal;font-size:3.52777791px;line-height:1.25;font-family:Consolas;-inkscape-font-specification:'Consolas Italic';text-align:center;letter-spacing:0px;word-spacing:0px;text-anchor:middle;display:inline;fill:#ffffff;fill-opacity:1;stroke:none;stroke-width:0.26458332;enable-background:new"
           id="text5947-8">
          <path
             d="m 4.118116,25.858066 q -0.1860351,0 -0.2904215,-0.09508 -0.1033529,-0.09612 -0.1033529,-0.287321 0,-0.08578 0.01757,-0.169499 0.018604,-0.08475 0.053743,-0.16123 0.03514,-0.07752 0.086816,-0.143661 0.051676,-0.06615 0.1188558,-0.114722 0.067179,-0.04857 0.1477946,-0.07545 0.081649,-0.02791 0.1767334,-0.02791 0.093018,0 0.1653646,0.0248 0.07338,0.02377 0.1229899,0.07235 0.050643,0.04754 0.077515,0.11989 0.026872,0.07131 0.026872,0.166398 0,0.08475 -0.018604,0.169498 -0.01757,0.08372 -0.05271,0.161231 -0.03514,0.07648 -0.086816,0.142627 -0.051677,0.06615 -0.1188558,0.114721 -0.066146,0.04858 -0.1477946,0.07648 -0.081649,0.02687 -0.1756999,0.02687 z m 0.4165121,-0.672827 q 0,-0.125057 -0.058911,-0.187069 -0.058911,-0.06201 -0.1715657,-0.06201 -0.064079,0 -0.1188558,0.02274 -0.054777,0.0217 -0.099219,0.06098 -0.043408,0.03824 -0.077515,0.08992 -0.033073,0.05064 -0.055811,0.10852 -0.021704,0.05684 -0.033073,0.118856 -0.011369,0.06098 -0.011369,0.118856 0,0.125057 0.058911,0.188102 0.058911,0.06201 0.1715657,0.06201 0.065112,0 0.1188558,-0.02171 0.054777,-0.02274 0.098185,-0.06098 0.044442,-0.03927 0.077515,-0.08992 0.034107,-0.05168 0.055811,-0.109554 0.022738,-0.05788 0.034106,-0.118856 0.011369,-0.06201 0.011369,-0.119889 z"
             style="font-style:italic;font-variant:normal;font-weight:normal;font-stretch:normal;font-size:2.11666656px;line-height:1px;font-family:Consolas;-inkscape-font-specification:'Consolas Italic';writing-mode:lr-tb;fill:#ffffff;stroke-width:0.26458332"
             id="path1169"
             inkscape:connector-curvature="0" />
          <path
             d="m 5.7955329,25.363006 q -0.00413,0.01964 -0.0093,0.05168 -0.00413,0.03204 -0.010335,0.08682 -0.0062,0.05374 -0.015503,0.136426 -0.0093,0.08165 -0.021704,0.201538 H 5.5691902 l 0.025838,-0.238745 q -0.071314,0.124023 -0.1725993,0.191202 -0.1002523,0.06615 -0.2191081,0.06615 -0.164331,0 -0.2335774,-0.09922 -0.068213,-0.09922 -0.028939,-0.291456 L 5.07413,24.8018 h 0.1798339 l -0.1333251,0.663525 q -0.025838,0.125057 0.0031,0.181901 0.029972,0.05684 0.1136882,0.05684 0.044442,0 0.08785,-0.02067 0.044442,-0.02067 0.085783,-0.05684 0.042375,-0.03721 0.079582,-0.08578 0.03824,-0.04961 0.069246,-0.106453 0.032039,-0.05684 0.054777,-0.117823 0.022738,-0.06201 0.03514,-0.12299 L 5.728354,24.8018 h 0.1798339 z"
             style="font-style:italic;font-variant:normal;font-weight:normal;font-stretch:normal;font-size:2.11666656px;line-height:1px;font-family:Consolas;-inkscape-font-specification:'Consolas Italic';writing-mode:lr-tb;fill:#ffffff;stroke-width:0.26458332"
             id="path1171"
             inkscape:connector-curvature="0" />
          <path
             d="m 6.8879726,25.824993 q -0.065112,0.0155 -0.129191,0.0217 -0.063045,0.0072 -0.1126547,0.0072 -0.1054199,0 -0.1808675,-0.02274 -0.074414,-0.02377 -0.1178222,-0.07442 -0.043408,-0.05064 -0.054777,-0.130224 -0.010335,-0.08062 0.013436,-0.195337 l 0.095085,-0.478524 H 6.1107591 L 6.1407315,24.8018 h 0.289388 l 0.057878,-0.285254 0.1901692,-0.04651 -0.068213,0.331763 h 0.4661214 l -0.029972,0.150895 H 6.5810146 L 6.483863,25.43742 q -0.014469,0.07131 -0.011369,0.121956 0.0031,0.04961 0.024805,0.08165 0.021704,0.03204 0.063045,0.04651 0.041341,0.01447 0.1054199,0.01447 0.03824,0 0.096118,-0.0072 0.057878,-0.0083 0.1260905,-0.02481 z"
             style="font-style:italic;font-variant:normal;font-weight:normal;font-stretch:normal;font-size:2.11666656px;line-height:1px;font-family:Consolas;-inkscape-font-specification:'Consolas Italic';writing-mode:lr-tb;fill:#ffffff;stroke-width:0.26458332"
             id="path1173"
             inkscape:connector-curvature="0" />
          <path
             d="m 7.6093757,25.851865 q -0.075448,0 -0.127124,-0.0062 -0.050643,-0.0062 -0.095085,-0.0186 l -0.086816,0.436149 h -0.179834 l 0.1963704,-0.984952 q 0.00413,-0.01964 0.00827,-0.05168 0.00517,-0.03204 0.011369,-0.08578 0.00723,-0.05478 0.015503,-0.136425 0.0093,-0.08268 0.021704,-0.202572 h 0.1694987 l -0.024805,0.239779 q 0.071313,-0.125057 0.1725993,-0.191203 0.1012858,-0.06718 0.2211751,-0.06718 0.074414,0 0.1291911,0.02584 0.054777,0.0248 0.090951,0.07028 0.036173,0.04548 0.053743,0.110587 0.01757,0.06408 0.01757,0.142627 0,0.148828 -0.039274,0.280086 -0.038241,0.130225 -0.1136882,0.22841 -0.075448,0.09715 -0.1870687,0.153996 -0.1105875,0.05684 -0.254248,0.05684 z m 0.4123779,-0.702799 q 0,-0.09922 -0.034106,-0.153996 -0.033073,-0.05478 -0.1095541,-0.05478 -0.044442,0 -0.088883,0.02067 -0.044442,0.02067 -0.086816,0.05684 -0.042375,0.03617 -0.080615,0.08578 -0.03824,0.04858 -0.069246,0.10542 -0.031006,0.05581 -0.054777,0.116789 -0.022738,0.06098 -0.03514,0.121956 L 7.42024,25.661696 q 0.048576,0.02067 0.1002522,0.03307 0.051677,0.01137 0.095085,0.01137 0.084749,0 0.1477946,-0.02894 0.063045,-0.02894 0.1074869,-0.07545 0.045475,-0.04651 0.074414,-0.106453 0.028939,-0.05994 0.045475,-0.121957 0.01757,-0.06201 0.023771,-0.119889 0.00723,-0.05891 0.00723,-0.104386 z"
             style="font-style:italic;font-variant:normal;font-weight:normal;font-stretch:normal;font-size:2.11666656px;line-height:1px;font-family:Consolas;-inkscape-font-specification:'Consolas Italic';writing-mode:lr-tb;fill:#ffffff;stroke-width:0.26458332"
             id="path1175"
             inkscape:connector-curvature="0" />
          <path
             d="m 9.2929936,25.363006 q -0.00413,0.01964 -0.0093,0.05168 -0.00413,0.03204 -0.010335,0.08682 -0.0062,0.05374 -0.015503,0.136426 -0.0093,0.08165 -0.021704,0.201538 H 9.0666509 l 0.025838,-0.238745 q -0.071314,0.124023 -0.1725993,0.191202 -0.1002522,0.06615 -0.219108,0.06615 -0.1643311,0 -0.2335775,-0.09922 -0.068213,-0.09922 -0.028939,-0.291456 L 8.5715907,24.8018 h 0.179834 l -0.1333252,0.663525 q -0.025838,0.125057 0.0031,0.181901 0.029972,0.05684 0.1136881,0.05684 0.044442,0 0.08785,-0.02067 0.044442,-0.02067 0.085783,-0.05684 0.042375,-0.03721 0.079582,-0.08578 0.038241,-0.04961 0.069246,-0.106453 0.032039,-0.05684 0.054777,-0.117823 0.022738,-0.06201 0.03514,-0.12299 l 0.078549,-0.39171 h 0.179834 z"
             style="font-style:italic;font-variant:normal;font-weight:normal;font-stretch:normal;font-size:2.11666656px;line-height:1px;font-family:Consolas;-inkscape-font-specification:'Consolas Italic';writing-mode:lr-tb;fill:#ffffff;stroke-width:0.26458332"
             id="path1177"
             inkscape:connector-curvature="0" />
          <path
             d="m 10.385433,25.824993 q -0.06511,0.0155 -0.129191,0.0217 -0.06305,0.0072 -0.112654,0.0072 -0.10542,0 -0.180868,-0.02274 -0.074414,-0.02377 -0.1178222,-0.07442 -0.043408,-0.05064 -0.054777,-0.130224 -0.010335,-0.08062 0.013436,-0.195337 l 0.095085,-0.478524 H 9.6082197 L 9.6381921,24.8018 h 0.289388 l 0.057878,-0.285254 0.1901689,-0.04651 -0.06821,0.331763 h 0.466121 l -0.02997,0.150895 H 10.07848 l -0.097151,0.484725 q -0.014469,0.07131 -0.011369,0.121956 0.0031,0.04961 0.024805,0.08165 0.021705,0.03204 0.063046,0.04651 0.04134,0.01447 0.10542,0.01447 0.03824,0 0.09612,-0.0072 0.05788,-0.0083 0.12609,-0.02481 z"
             style="font-style:italic;font-variant:normal;font-weight:normal;font-stretch:normal;font-size:2.11666656px;line-height:1px;font-family:Consolas;-inkscape-font-specification:'Consolas Italic';writing-mode:lr-tb;fill:#ffffff;stroke-width:0.26458332"
             id="path1179"
             inkscape:connector-curvature="0" />
        </g>
        <g
           aria-label="range"
           style="font-style:italic;font-variant:normal;font-weight:normal;font-stretch:normal;font-size:3.52777791px;line-height:1.25;font-family:Consolas;-inkscape-font-specification:'Consolas Italic';text-align:center;letter-spacing:0px;word-spacing:0px;text-anchor:middle;display:inline;fill:#ffffff;fill-opacity:1;stroke:none;stroke-width:0.26458332;enable-background:new"
           id="text1152">
          <path
             d="m 4.449965,27.414925 q 0.00413,-0.01964 0.00827,-0.05168 0.00517,-0.03204 0.011369,-0.08578 0.0062,-0.05478 0.015503,-0.136426 0.0093,-0.08268 0.021704,-0.202571 h 0.1694987 l -0.025838,0.239778 q 0.036174,-0.05271 0.078548,-0.09922 0.042375,-0.04754 0.093018,-0.08268 0.050643,-0.03514 0.1105876,-0.05581 0.059945,-0.02067 0.1312581,-0.02067 0.1705323,0 0.2356446,0.106454 0.065112,0.106453 0.020671,0.307991 H 5.1372615 q 0.015503,-0.07131 0.015503,-0.120923 0,-0.04961 -0.014469,-0.07958 -0.013436,-0.03101 -0.041341,-0.04444 -0.026872,-0.01447 -0.065112,-0.01447 -0.074414,0 -0.144694,0.04547 -0.07028,0.04444 -0.129191,0.117822 -0.057878,0.07235 -0.1002523,0.163298 -0.041341,0.09095 -0.059945,0.182934 l -0.078548,0.391707 H 4.3373103 Z"
             style="font-style:italic;font-variant:normal;font-weight:normal;font-stretch:normal;font-size:2.11666656px;line-height:1px;font-family:Consolas;-inkscape-font-specification:'Consolas Italic';writing-mode:lr-tb;fill:#ffffff;stroke-width:0.26458332"
             id="path1182"
             inkscape:connector-curvature="0" />
          <path
             d="m 6.0922419,26.926066 q 0.067179,0 0.1281575,0.0093 0.060978,0.0083 0.1167887,0.02481 l 0.1632976,-0.04031 -0.1167888,0.57981 q -0.00413,0.01964 -0.0093,0.05168 -0.00413,0.03204 -0.010335,0.08682 -0.0062,0.05374 -0.015503,0.136425 -0.0093,0.08165 -0.021704,0.201538 H 6.1573542 l 0.025838,-0.238745 q -0.071314,0.124024 -0.1736328,0.191203 -0.1012858,0.06615 -0.2201416,0.06615 -0.074414,0 -0.1302246,-0.0248 -0.054777,-0.0248 -0.09095,-0.07028 -0.036174,-0.04651 -0.053744,-0.110587 -0.01757,-0.06408 -0.01757,-0.142627 0,-0.148828 0.038241,-0.279053 0.039274,-0.131258 0.1147216,-0.229443 0.075448,-0.09819 0.1860352,-0.15503 0.1116211,-0.05684 0.2563151,-0.05684 z m -0.4134115,0.7028 q 0,0.09819 0.034107,0.153996 0.034106,0.05581 0.1105875,0.05581 0.044442,0 0.088883,-0.02067 0.044442,-0.02067 0.086816,-0.05684 0.042375,-0.03617 0.079582,-0.08475 0.038241,-0.04961 0.069246,-0.10542 0.032039,-0.05684 0.054777,-0.117822 0.022738,-0.06201 0.03514,-0.12299 l 0.042375,-0.212907 q -0.048576,-0.02067 -0.1002523,-0.03204 -0.050643,-0.0124 -0.094051,-0.0124 -0.084749,0 -0.1477946,0.02894 -0.063045,0.02894 -0.1085205,0.07545 -0.045475,0.04651 -0.074414,0.106453 -0.028939,0.05891 -0.046509,0.120923 -0.016536,0.06201 -0.023771,0.120923 -0.0062,0.05891 -0.0062,0.103353 z"
             style="font-style:italic;font-variant:normal;font-weight:normal;font-stretch:normal;font-size:2.11666656px;line-height:1px;font-family:Consolas;-inkscape-font-specification:'Consolas Italic';writing-mode:lr-tb;fill:#ffffff;stroke-width:0.26458332"
             id="path1184"
             inkscape:connector-curvature="0" />
          <path
             d="m 6.7392308,27.414925 q 0.00413,-0.01964 0.00827,-0.05168 0.00517,-0.03204 0.011369,-0.08578 0.0062,-0.05478 0.015503,-0.136426 0.0093,-0.08268 0.021704,-0.202571 h 0.1694987 l -0.025838,0.239778 q 0.072347,-0.125057 0.1725993,-0.191202 0.1012858,-0.06718 0.219108,-0.06718 0.1643311,0 0.232544,0.09922 0.069246,0.09922 0.029972,0.292489 L 7.4606337,27.976131 H 7.2807997 L 7.4141249,27.31364 q 0.025838,-0.126091 -0.00413,-0.181901 -0.028939,-0.05684 -0.1116211,-0.05684 -0.066146,0 -0.1322916,0.04547 -0.065112,0.04547 -0.1219564,0.118856 -0.056844,0.07235 -0.099219,0.163297 -0.041341,0.09095 -0.059945,0.181901 l -0.078548,0.391707 h -0.179834 z"
             style="font-style:italic;font-variant:normal;font-weight:normal;font-stretch:normal;font-size:2.11666656px;line-height:1px;font-family:Consolas;-inkscape-font-specification:'Consolas Italic';writing-mode:lr-tb;fill:#ffffff;stroke-width:0.26458332"
             id="path1186"
             inkscape:connector-curvature="0" />
          <path
             d="m 8.4362848,27.996802 q 0.015503,-0.06718 0.032039,-0.130225 0.01757,-0.06304 0.03514,-0.118855 -0.031006,0.05788 -0.073381,0.104386 -0.041341,0.04547 -0.089917,0.07751 -0.048576,0.03101 -0.1043864,0.04754 -0.055811,0.01757 -0.1147217,0.01757 -0.074414,0 -0.1302246,-0.0248 -0.054777,-0.0248 -0.090951,-0.07028 -0.036173,-0.04651 -0.053743,-0.110587 -0.01757,-0.06408 -0.01757,-0.142627 0,-0.148828 0.038241,-0.279053 0.039274,-0.131258 0.1147216,-0.229443 0.075448,-0.09819 0.1860352,-0.15503 0.1116211,-0.05684 0.2563151,-0.05684 0.067179,0 0.1281575,0.0093 0.060978,0.0083 0.1167888,0.02481 l 0.1632975,-0.04031 -0.2222087,1.111043 q -0.016536,0.08372 -0.051676,0.152963 -0.034107,0.06925 -0.093018,0.119889 -0.058911,0.05064 -0.144694,0.07855 -0.085783,0.02791 -0.1984375,0.02791 -0.1209228,0 -0.2098063,-0.03204 -0.088883,-0.03204 -0.1405599,-0.06925 l 0.09095,-0.132292 q 0.058911,0.04031 0.1260905,0.06511 0.068213,0.0248 0.1488282,0.0248 0.080615,0 0.1322916,-0.02274 0.051676,-0.0217 0.083716,-0.05891 0.033073,-0.03721 0.051677,-0.08578 0.018603,-0.04858 0.031006,-0.102319 z M 8.010471,27.628866 q 0,0.09819 0.034107,0.153996 0.034106,0.05581 0.1105875,0.05581 0.044442,0 0.088883,-0.02067 0.044442,-0.02067 0.085783,-0.05684 0.042375,-0.03617 0.080615,-0.08475 0.038241,-0.04858 0.069246,-0.103353 0.031006,-0.05581 0.053744,-0.114721 0.022738,-0.05891 0.034106,-0.116789 l 0.044442,-0.224276 q -0.048576,-0.02067 -0.1002523,-0.03204 -0.050643,-0.0124 -0.094051,-0.0124 -0.084749,0 -0.1477946,0.02894 -0.063045,0.02894 -0.1085205,0.07545 -0.045475,0.04651 -0.074414,0.106453 -0.028939,0.05891 -0.046509,0.120923 -0.016536,0.06201 -0.023771,0.120923 -0.0062,0.05891 -0.0062,0.103353 z"
             style="font-style:italic;font-variant:normal;font-weight:normal;font-stretch:normal;font-size:2.11666656px;line-height:1px;font-family:Consolas;-inkscape-font-specification:'Consolas Italic';writing-mode:lr-tb;fill:#ffffff;stroke-width:0.26458332"
             id="path1188"
             inkscape:connector-curvature="0" />
          <path
             d="m 9.1979953,27.515178 q -0.00517,0.02687 -0.00827,0.05064 -0.00207,0.02377 -0.00207,0.04651 0,0.112655 0.067179,0.1726 0.067179,0.05994 0.2077393,0.05994 0.09095,0 0.179834,-0.01344 0.089917,-0.01344 0.1601969,-0.03101 v 0.147794 q -0.077515,0.02067 -0.1746663,0.03307 -0.096118,0.01344 -0.1953369,0.01344 -0.2191081,0 -0.3234945,-0.09715 -0.1043864,-0.09819 -0.1043864,-0.283187 0,-0.142627 0.044442,-0.268717 0.044442,-0.12609 0.1229899,-0.220142 0.078548,-0.09508 0.1860352,-0.149861 0.1085205,-0.05581 0.2356445,-0.05581 0.08785,0 0.1560628,0.02067 0.069246,0.02067 0.1167888,0.05684 0.047542,0.03617 0.072347,0.08578 0.024805,0.04858 0.024805,0.10542 0,0.07441 -0.032039,0.134358 -0.031006,0.05994 -0.1002523,0.103353 -0.068213,0.04237 -0.1767334,0.06615 -0.1085205,0.02274 -0.2625163,0.02274 z m 0.1922363,-0.138493 q 0.1147217,0 0.1891357,-0.01344 0.075448,-0.01447 0.1188558,-0.03824 0.044442,-0.02377 0.062012,-0.05478 0.01757,-0.03101 0.01757,-0.06408 0,-0.02894 -0.011369,-0.05478 -0.011369,-0.02584 -0.036174,-0.04548 -0.023771,-0.01964 -0.060978,-0.031 -0.036173,-0.01137 -0.085783,-0.01137 -0.067179,0 -0.1229899,0.02274 -0.054777,0.0217 -0.099219,0.06305 -0.044442,0.04031 -0.078548,0.09819 -0.034106,0.05788 -0.057878,0.129191 z"
             style="font-style:italic;font-variant:normal;font-weight:normal;font-stretch:normal;font-size:2.11666656px;line-height:1px;font-family:Consolas;-inkscape-font-specification:'Consolas Italic';writing-mode:lr-tb;fill:#ffffff;stroke-width:0.26458332"
             id="path1190"
             inkscape:connector-curvature="0" />
        </g>
      </g>
    </g>
    <g
       aria-label="from"
       transform="rotate(-90,-0.2645834,0.26458329)"
       style="font-style:italic;font-variant:normal;font-weight:normal;font-stretch:normal;font-size:3.52777791px;line-height:1.25;font-family:Consolas;-inkscape-font-specification:'Consolas Italic';text-align:center;letter-spacing:0px;word-spacing:0px;text-anchor:middle;display:inline;fill:#ffffff;fill-opacity:1;stroke:none;stroke-width:0.26458332;enable-background:new"
       id="text5947">
      <path
         inkscape:connector-curvature="0"
         d="m -34.793515,-0.02648054 q -0.0217,0.10748697 -0.06098,0.18500162 -0.03927,0.0785482 -0.100252,0.12919107 -0.05994,0.0516764 -0.143661,0.0764811 -0.08268,0.0248047 -0.192236,0.0248047 -0.02067,0 -0.04961,-0.001034 -0.02894,-0.001034 -0.04961,-0.003101 l 0.02894,-0.15502929 q 0.04754,0.006201 0.08888,0.006201 0.12299,0 0.19637,-0.0630452 0.07338,-0.0630452 0.100252,-0.19947102 l 0.151929,-0.7555094 h -0.33383 l 0.02997,-0.14986165 h 0.333829 l 0.03411,-0.17156569 q 0.04134,-0.2056722 0.16123,-0.3100586 0.11989,-0.1043864 0.335897,-0.1043864 0.05478,0 0.119889,0.0062 0.06615,0.0062 0.130225,0.018603 l -0.03204,0.1529622 q -0.05891,-0.013436 -0.118856,-0.020671 -0.05891,-0.00723 -0.117822,-0.00723 -0.12299,0 -0.196371,0.066146 -0.07338,0.066146 -0.100252,0.1984375 l -0.03411,0.17156569 h 0.455786 l -0.02997,0.14986165 h -0.454752 z m -0.488859,-1.05626626 z"
         style="font-style:italic;font-variant:normal;font-weight:normal;font-stretch:normal;font-size:2.11666656px;font-family:Consolas;-inkscape-font-specification:'Consolas Italic';fill:#ffffff;stroke-width:0.26458332"
         id="path994" />
      <path
         inkscape:connector-curvature="0"
         d="m -33.902613,-0.60629008 q 0.0041,-0.019637 0.0083,-0.0516764 0.0052,-0.0320394 0.01137,-0.0857829 0.0062,-0.054777 0.0155,-0.13642578 0.0093,-0.0826823 0.0217,-0.20257164 h 0.169499 l -0.02584,0.23977867 q 0.03617,-0.05271 0.07855,-0.0992187 0.04237,-0.0475423 0.09302,-0.0826823 0.05064,-0.03514 0.110588,-0.05581 0.05994,-0.020671 0.131258,-0.020671 0.170532,0 0.235644,0.10645278 0.06511,0.10645344 0.02067,0.30799152 h -0.182935 q 0.0155,-0.0713135 0.0155,-0.12092285 0,-0.0496094 -0.01447,-0.0795817 -0.01344,-0.0310059 -0.04134,-0.0444417 -0.02687,-0.0144694 -0.06511,-0.0144694 -0.07441,0 -0.144694,0.0454753 -0.07028,0.0444417 -0.129192,0.11782226 -0.05788,0.072347 -0.100252,0.16329752 -0.04134,0.0909505 -0.05994,0.18293456 l -0.07855,0.39170733 h -0.181901 z"
         style="font-style:italic;font-variant:normal;font-weight:normal;font-stretch:normal;font-size:2.11666656px;font-family:Consolas;-inkscape-font-specification:'Consolas Italic';fill:#ffffff;stroke-width:0.26458332"
         id="path996" />
      <path
         inkscape:connector-curvature="0"
         d="m -32.474277,-0.02648054 q -0.186035,0 -0.290421,-0.09508463 -0.103353,-0.0961182 -0.103353,-0.28732095 0,-0.0857829 0.01757,-0.16949869 0.0186,-0.0847493 0.05374,-0.16123046 0.03514,-0.0775146 0.08682,-0.14366047 0.05168,-0.0661458 0.118856,-0.11472168 0.06718,-0.0485759 0.147794,-0.0754476 0.08165,-0.027905 0.176734,-0.027905 0.09302,0 0.165364,0.024805 0.07338,0.023771 0.12299,0.072347 0.05064,0.0475423 0.07752,0.11988887 0.02687,0.0713135 0.02687,0.1663981 0,0.0847494 -0.0186,0.16949869 -0.01757,0.0837158 -0.05271,0.16123046 -0.03514,0.0764811 -0.08682,0.14262695 -0.05168,0.0661458 -0.118856,0.11472167 -0.06615,0.04857584 -0.147795,0.07648112 -0.08165,0.02687174 -0.1757,0.02687174 z m 0.416512,-0.67282711 q 0,-0.12505696 -0.05891,-0.18706868 -0.05891,-0.0620117 -0.171565,-0.0620117 -0.06408,0 -0.118856,0.0227376 -0.05478,0.0217041 -0.09922,0.0609782 -0.04341,0.0382406 -0.07752,0.089917 -0.03307,0.0506429 -0.05581,0.1085205 -0.0217,0.0568441 -0.03307,0.11885579 -0.01137,0.0609782 -0.01137,0.11885579 0,0.12505696 0.05891,0.1881022 0.05891,0.0620117 0.171566,0.0620117 0.06511,0 0.118856,-0.0217041 0.05478,-0.0227376 0.09819,-0.0609782 0.04444,-0.0392741 0.07751,-0.089917 0.03411,-0.0516764 0.05581,-0.10955403 0.02274,-0.0578776 0.03411,-0.11885579 0.01137,-0.0620117 0.01137,-0.11988931 z"
         style="font-style:italic;font-variant:normal;font-weight:normal;font-stretch:normal;font-size:2.11666656px;font-family:Consolas;-inkscape-font-specification:'Consolas Italic';fill:#ffffff;stroke-width:0.26458332"
         id="path998" />
      <path
         inkscape:connector-curvature="0"
         d="m -30.984962,-0.04508406 0.145728,-0.72553707 q 0.01137,-0.0568441 0.0155,-0.091984 0.0041,-0.03514 0.0021,-0.054777 -0.001,-0.019637 -0.0083,-0.0268717 -0.0062,-0.007235 -0.01757,-0.007235 -0.02067,0 -0.04858,0.0237712 -0.02687,0.0237712 -0.05684,0.0630452 -0.02997,0.0392741 -0.05994,0.0909505 -0.02997,0.0506429 -0.05684,0.10645344 -0.02584,0.054777 -0.04547,0.10955403 -0.01964,0.0537435 -0.02791,0.10025228 l -0.08268,0.4123779 h -0.165364 l 0.145727,-0.72553707 q 0.01137,-0.0568441 0.0155,-0.091984 0.0041,-0.03514 0.0021,-0.054777 -0.001,-0.019637 -0.0083,-0.0268717 -0.0062,-0.007235 -0.01757,-0.007235 -0.02067,0 -0.04858,0.0237712 -0.02687,0.0237712 -0.05684,0.0630452 -0.02997,0.0392741 -0.06098,0.0909505 -0.02997,0.0506429 -0.05581,0.10645344 -0.02584,0.054777 -0.04547,0.10955403 -0.01964,0.0537435 -0.02894,0.10025228 l -0.08268,0.4123779 h -0.164331 l 0.111621,-0.56120602 q 0.0041,-0.019637 0.0083,-0.0516764 0.0052,-0.0320394 0.01137,-0.0857829 0.0072,-0.054777 0.01654,-0.13642578 0.0093,-0.0826823 0.02171,-0.2025716 h 0.153995 l -0.02584,0.23977863 q 0.02894,-0.05271 0.05995,-0.0992187 0.03101,-0.0465088 0.06408,-0.0816487 0.03411,-0.036174 0.07235,-0.056844 0.03824,-0.020671 0.08165,-0.020671 0.05271,0 0.08682,0.020671 0.03514,0.020671 0.05064,0.05581 0.01654,0.03514 0.01447,0.0826823 -0.0021,0.0465088 -0.02274,0.0992187 0.02894,-0.05271 0.05891,-0.0992187 0.03101,-0.0465088 0.06408,-0.0816487 0.03411,-0.036174 0.07235,-0.056844 0.03824,-0.020671 0.08165,-0.020671 0.103353,0 0.138493,0.078548 0.03617,0.0775146 0.0031,0.24287991 l -0.145727,0.7348387 z"
         style="font-style:italic;font-variant:normal;font-weight:normal;font-stretch:normal;font-size:2.11666656px;font-family:Consolas;-inkscape-font-specification:'Consolas Italic';fill:#ffffff;stroke-width:0.26458332"
         id="path1000" />
    </g>
    <g
       aria-label="to"
       transform="rotate(-90,2.6779222,-2.6779257)"
       style="font-style:italic;font-variant:normal;font-weight:normal;font-stretch:normal;font-size:3.52777791px;line-height:1.25;font-family:Consolas;-inkscape-font-specification:'Consolas Italic';text-align:center;letter-spacing:0px;word-spacing:0px;text-anchor:middle;display:inline;fill:#ffffff;fill-opacity:1;stroke:none;stroke-width:0.26458332;enable-background:new"
       id="text968">
      <path
         inkscape:connector-curvature="0"
         d="m -33.299407,10.65551 q -0.06511,0.0155 -0.129191,0.0217 -0.06305,0.0072 -0.112655,0.0072 -0.10542,0 -0.180867,-0.02274 -0.07441,-0.02377 -0.117823,-0.07441 -0.04341,-0.05064 -0.05478,-0.130225 -0.01033,-0.08061 0.01344,-0.195337 l 0.09508,-0.4785234 h -0.290422 l 0.02997,-0.1508952 h 0.289388 l 0.05788,-0.2852539 0.19017,-0.046509 -0.06821,0.3317627 h 0.466121 l -0.02997,0.1508952 h -0.465088 l -0.09715,0.4847246 q -0.01447,0.07131 -0.01137,0.121957 0.0031,0.04961 0.02481,0.08165 0.0217,0.03204 0.06305,0.04651 0.04134,0.01447 0.10542,0.01447 0.03824,0 0.09612,-0.0072 0.05788,-0.0083 0.126091,-0.02481 z"
         style="font-style:italic;font-variant:normal;font-weight:normal;font-stretch:normal;font-size:2.11666656px;font-family:Consolas;-inkscape-font-specification:'Consolas Italic';fill:#ffffff;stroke-width:0.26458332"
         id="path1003" />
      <path
         inkscape:connector-curvature="0"
         d="m -32.571803,10.688583 q -0.186035,0 -0.290422,-0.09508 -0.103352,-0.09612 -0.103352,-0.287321 0,-0.08578 0.01757,-0.169499 0.0186,-0.08475 0.05374,-0.1612301 0.03514,-0.077515 0.08682,-0.1436605 0.05168,-0.066146 0.118856,-0.1147217 0.06718,-0.048576 0.147795,-0.075448 0.08165,-0.027905 0.176733,-0.027905 0.09302,0 0.165365,0.024805 0.07338,0.023771 0.12299,0.072347 0.05064,0.047542 0.07751,0.1198893 0.02687,0.071314 0.02687,0.1663981 0,0.084749 -0.0186,0.1694989 -0.01757,0.08371 -0.05271,0.16123 -0.03514,0.07648 -0.08682,0.142627 -0.05168,0.06615 -0.118856,0.114722 -0.06614,0.04858 -0.147794,0.07648 -0.08165,0.02687 -0.1757,0.02687 z m 0.416512,-0.672828 q 0,-0.1250565 -0.05891,-0.1870682 -0.05891,-0.062012 -0.171566,-0.062012 -0.06408,0 -0.118856,0.022738 -0.05478,0.021704 -0.09922,0.060978 -0.04341,0.038241 -0.07751,0.089917 -0.03307,0.050643 -0.05581,0.1085202 -0.0217,0.05684 -0.03307,0.118856 -0.01137,0.06098 -0.01137,0.118856 0,0.125057 0.05891,0.188102 0.05891,0.06201 0.171566,0.06201 0.06511,0 0.118855,-0.0217 0.05478,-0.02274 0.09819,-0.06098 0.04444,-0.03927 0.07751,-0.08992 0.03411,-0.05168 0.05581,-0.109554 0.02274,-0.05788 0.03411,-0.118856 0.01137,-0.06201 0.01137,-0.11989 z"
         style="font-style:italic;font-variant:normal;font-weight:normal;font-stretch:normal;font-size:2.11666656px;font-family:Consolas;-inkscape-font-specification:'Consolas Italic';fill:#ffffff;stroke-width:0.26458332"
         id="path1005" />
    </g>
  </g>
  <g
     inkscape:groupmode="layer"
     id="layer3"
     inkscape:label="widgets"
     style="display:none"
     transform="translate(3.441772,-23.320513)">
    <g
       transform="matrix(-1,0,0,1,249.9062,-101.49448)"
       id="layer1-9"
       inkscape:label="Layer 1">
      <g
         style="display:inline"
         id="g36">
        <g
           id="g845">
          <g
             transform="matrix(0.22221975,0,0,-0.22220988,239.61409,128.57612)"
             id="g6455"
             style="fill:#333333;stroke-width:1.33334816">
            <g
               id="g822"
               transform="matrix(0.75,0,0,0.75,-4.5,0)">
              <path
                 d="m 0,0 c 0,-9.941 -8.059,-18 -18,-18 -9.941,0 -18,8.059 -18,18 0,9.941 8.059,18 18,18 C -8.059,18 0,9.941 0,0"
                 style="display:inline;fill:#000000;fill-opacity:1;fill-rule:nonzero;stroke:none;stroke-width:1.33334816"
                 id="path6457"
                 inkscape:connector-curvature="0" />
            </g>
          </g>
          <g
             transform="matrix(0.22221975,0,0,-0.16492789,235.74716,125.63161)"
             id="g6463"
             style="fill:#ffffff;stroke-width:1.33334816">
            <path
               inkscape:connector-curvature="0"
               id="path6465"
               style="fill:#ffffff;fill-opacity:1;fill-rule:evenodd;stroke:none;stroke-width:1.33334816"
               d="M 0,0 C -0.195,0.045 -0.393,0.069 -0.598,0.069 -0.804,0.069 -1.002,0.045 -1.196,0 V -18.157 H 0 Z" />
          </g>
        </g>
      </g>
    </g>
    <g
       transform="matrix(-1,0,0,1,103.79165,-90.407302)"
       id="layer1-1"
       inkscape:label="Layer 1">
      <g
         id="g853">
        <path
           style="fill:#000000;fill-opacity:1;fill-rule:nonzero;stroke:#cccccc;stroke-width:0.10692944;stroke-miterlimit:4;stroke-dasharray:none;stroke-opacity:1"
           d="m 92.7964,120.54224 c -1.593376,0 -2.88922,1.29586 -2.88922,2.88922 0,1.5934 1.295844,2.88885 2.88922,2.88885 1.593373,0 2.888851,-1.29545 2.888851,-2.88885 0,-1.59336 -1.295478,-2.88922 -2.888851,-2.88922 z m 0,0.80859 c 1.147387,0 2.08062,0.93325 2.08062,2.08063 0,1.1474 -0.933233,2.08062 -2.08062,2.08062 -1.147387,0 -2.080622,-0.93322 -2.080622,-2.08062 0,-1.14738 0.933235,-2.08063 2.080622,-2.08063 z"
           id="path7255"
           inkscape:connector-curvature="0" />
        <path
           inkscape:connector-curvature="0"
           id="path7265"
           d="m 94.079187,123.43129 c 0,0.70829 -0.574676,1.28297 -1.282951,1.28297 -0.708277,0 -1.282952,-0.57468 -1.282952,-1.28297 0,-0.70826 0.574675,-1.28292 1.282952,-1.28292 0.708275,0 1.282951,0.57466 1.282951,1.28292"
           style="fill:#000000;fill-opacity:1;fill-rule:nonzero;stroke:none;stroke-width:0.25148219" />
      </g>
    </g>
    <g
       inkscape:label="Layer 1"
       id="g946"
       transform="translate(-235.6494,-101.49448)">
      <g
         id="g944"
         style="display:inline">
        <g
           id="g942">
          <g
             style="fill:#333333;stroke-width:1.33334816"
             id="g936"
             transform="matrix(0.22221975,0,0,-0.22220988,239.61409,128.57612)">
            <g
               transform="matrix(0.75,0,0,0.75,-4.5,0)"
               id="g934">
              <path
                 inkscape:connector-curvature="0"
                 id="path932"
                 style="display:inline;fill:#000000;fill-opacity:1;fill-rule:nonzero;stroke:none;stroke-width:1.33334816"
                 d="m 0,0 c 0,-9.941 -8.059,-18 -18,-18 -9.941,0 -18,8.059 -18,18 0,9.941 8.059,18 18,18 C -8.059,18 0,9.941 0,0" />
            </g>
          </g>
          <g
             style="fill:#ffffff;stroke-width:1.33334816"
             id="g940"
             transform="matrix(0.22221975,0,0,-0.16492789,235.74716,125.63161)">
            <path
               d="M 0,0 C -0.195,0.045 -0.393,0.069 -0.598,0.069 -0.804,0.069 -1.002,0.045 -1.196,0 V -18.157 H 0 Z"
               style="fill:#ffffff;fill-opacity:1;fill-rule:evenodd;stroke:none;stroke-width:1.33334816"
               id="path938"
               inkscape:connector-curvature="0" />
          </g>
        </g>
      </g>
    </g>
    <g
       inkscape:label="Layer 1"
       id="g954"
       transform="translate(-89.534844,-90.407306)">
      <g
         id="g952">
        <path
           inkscape:connector-curvature="0"
           id="path948"
           d="m 92.7964,120.54224 c -1.593376,0 -2.88922,1.29586 -2.88922,2.88922 0,1.5934 1.295844,2.88885 2.88922,2.88885 1.593373,0 2.888851,-1.29545 2.888851,-2.88885 0,-1.59336 -1.295478,-2.88922 -2.888851,-2.88922 z m 0,0.80859 c 1.147387,0 2.08062,0.93325 2.08062,2.08063 0,1.1474 -0.933233,2.08062 -2.08062,2.08062 -1.147387,0 -2.080622,-0.93322 -2.080622,-2.08062 0,-1.14738 0.933235,-2.08063 2.080622,-2.08063 z"
           style="fill:#000000;fill-opacity:1;fill-rule:nonzero;stroke:#cccccc;stroke-width:0.10692944;stroke-miterlimit:4;stroke-dasharray:none;stroke-opacity:1" />
        <path
           style="fill:#000000;fill-opacity:1;fill-rule:nonzero;stroke:none;stroke-width:0.25148219"
           d="m 94.079187,123.43129 c 0,0.70829 -0.574676,1.28297 -1.282951,1.28297 -0.708277,0 -1.282952,-0.57468 -1.282952,-1.28297 0,-0.70826 0.574675,-1.28292 1.282952,-1.28292 0.708275,0 1.282951,0.57466 1.282951,1.28292"
           id="path950"
           inkscape:connector-curvature="0" />
      </g>
    </g>
  </g>
</svg>
