<?xml version="1.0" encoding="UTF-8" standalone="no"?>
<!-- Created with Inkscape (http://www.inkscape.org/) -->

<svg
   xmlns:dc="http://purl.org/dc/elements/1.1/"
   xmlns:cc="http://creativecommons.org/ns#"
   xmlns:rdf="http://www.w3.org/1999/02/22-rdf-syntax-ns#"
   xmlns:svg="http://www.w3.org/2000/svg"
   xmlns="http://www.w3.org/2000/svg"
   xmlns:sodipodi="http://sodipodi.sourceforge.net/DTD/sodipodi-0.dtd"
   xmlns:inkscape="http://www.inkscape.org/namespaces/inkscape"
   width="15"
   height="14.998887"
   viewBox="0 0 3.9687499 3.9684557"
   version="1.1"
   id="svg18800"
   inkscape:version="0.92.4 (5da689c313, 2019-01-14)"
   sodipodi:docname="screw_hole.svg">
  <defs
     id="defs18794" />
  <sodipodi:namedview
     id="base"
     pagecolor="#ffffff"
     bordercolor="#666666"
     borderopacity="1.0"
     inkscape:pageopacity="0.0"
     inkscape:pageshadow="2"
     inkscape:zoom="40.96"
     inkscape:cx="6.1795761"
     inkscape:cy="10.822619"
     inkscape:document-units="mm"
     inkscape:current-layer="layer3"
     showgrid="false"
     fit-margin-top="0"
     fit-margin-left="0"
     fit-margin-right="0"
     fit-margin-bottom="0"
     inkscape:window-width="1858"
     inkscape:window-height="1057"
     inkscape:window-x="54"
     inkscape:window-y="-8"
     inkscape:window-maximized="1"
     units="px"
     showguides="false"
     inkscape:guide-bbox="true">
    <sodipodi:guide
       position="2.1704102,3.6496481"
       orientation="0,1"
       id="guide837"
       inkscape:locked="false" />
    <sodipodi:guide
       position="2.4417114,0.33589683"
       orientation="0,1"
       id="guide921"
       inkscape:locked="false" />
    <sodipodi:guide
       position="3.6431884,1.8474325"
       orientation="1,0"
       id="guide923"
       inkscape:locked="false" />
  </sodipodi:namedview>
  <metadata
     id="metadata18797">
    <rdf:RDF>
      <cc:Work
         rdf:about="">
        <dc:format>image/svg+xml</dc:format>
        <dc:type
           rdf:resource="http://purl.org/dc/dcmitype/StillImage" />
        <dc:title />
      </cc:Work>
    </rdf:RDF>
  </metadata>
  <g
     inkscape:label="Layer 1"
     inkscape:groupmode="layer"
     id="layer1"
     transform="translate(-27.124952,-67.361781)"
     style="display:inline">
    <path
       d="m 29.109326,70.702443 c -0.748265,0 -1.356937,-0.608282 -1.356937,-1.356334 0,-0.748048 0.608672,-1.356543 1.356937,-1.356543 0.748264,0 1.356939,0.608494 1.356939,1.356543 0,0.748052 -0.608674,1.356334 -1.356939,1.356334"
       style="fill:#666666;fill-opacity:1;fill-rule:nonzero;stroke:#333333;stroke-width:0.22612368;stroke-miterlimit:4;stroke-dasharray:none;stroke-opacity:1"
       id="path835"
       inkscape:connector-curvature="0" />
    <text
       xml:space="preserve"
       style="font-style:normal;font-weight:normal;font-size:2.82222223px;line-height:1.25;font-family:sans-serif;letter-spacing:0px;word-spacing:0px;fill:#000000;fill-opacity:1;stroke:none;stroke-width:0.26458332"
       x="29.16617"
       y="66.601845"
       id="text839"><tspan
         sodipodi:role="line"
         id="tspan837"
         x="29.16617"
         y="69.176643"
         style="stroke-width:0.26458332"></tspan></text>
  </g>
  <g
     inkscape:groupmode="layer"
     id="layer3"
     inkscape:label="Layer 3">
    <g
       id="g923"
       transform="translate(0.32164734,0.1860653)">
      <g
         aria-label="miss"
         transform="scale(0.92271252,1.0837612)"
         style="font-style:normal;font-weight:normal;font-size:0.58592248px;line-height:1.25;font-family:sans-serif;letter-spacing:0px;word-spacing:0px;fill:#000000;fill-opacity:1;stroke:none;stroke-width:0.24413434"
         id="text907" />
      <g
         aria-label="anything"
         transform="scale(0.92241647,1.084109)"
         style="font-style:normal;font-weight:normal;font-size:0.58611053px;line-height:1.25;font-family:sans-serif;letter-spacing:0px;word-spacing:0px;fill:#000000;fill-opacity:1;stroke:none;stroke-width:0.24421272"
         id="text911" />
      <g
         aria-label="?"
         transform="scale(0.92241646,1.084109)"
         style="font-style:normal;font-weight:normal;font-size:0.58611053px;line-height:1.25;font-family:sans-serif;letter-spacing:0px;word-spacing:0px;fill:#000000;fill-opacity:1;stroke:none;stroke-width:0.24421272"
         id="text915">
        <path
           id="path951"
           style="font-size:0.58611053px;stroke-width:0.24421272"
           d="m 1.9234919,2.1130525 q 0,0.028046 -0.010017,0.050083 -0.010017,0.02175 -0.026329,0.038635 -0.016026,0.016313 -0.036918,0.030622 -0.020892,0.014309 -0.044359,0.02776 v 0.064392 h -0.051227 v -0.087287 q 0.018602,-0.010589 0.040066,-0.023181 0.02175,-0.012592 0.035487,-0.025471 0.016599,-0.014882 0.025757,-0.030622 0.00916,-0.016026 0.00916,-0.040638 0,-0.032339 -0.022036,-0.048079 -0.02175,-0.016027 -0.056379,-0.016027 -0.030908,0 -0.058668,0.00973 -0.027474,0.00973 -0.0435,0.019747 h -0.00286 v -0.058382 q 0.020033,-0.00773 0.050655,-0.013737 0.030908,-0.0063 0.058382,-0.0063 0.06153,0 0.097017,0.03005 0.035773,0.029763 0.035773,0.078701 z M 1.8104481,2.4390192 H 1.752066 V 2.3786342 H 1.810448 Z M 3.0433408,1.7848606 q 0,0.081277 -0.036918,0.1193399 -0.036918,0.038063 -0.1136161,0.038063 -0.025471,0 -0.049797,-0.00372 -0.02404,-0.00343 -0.047507,-0.010017 v -0.054948 h 0.00286 q 0.013165,0.00515 0.041783,0.012592 0.028619,0.00773 0.057237,0.00773 0.027474,0 0.045504,-0.00658 0.01803,-0.00658 0.028046,-0.018316 0.010017,-0.011161 0.014309,-0.026901 0.00429,-0.01574 0.00429,-0.035201 v -0.029191 q -0.024326,0.019461 -0.046648,0.029191 -0.022036,0.00944 -0.056379,0.00944 -0.057237,0 -0.091007,-0.041211 -0.033484,-0.041497 -0.033484,-0.1167642 0,-0.041211 0.011448,-0.070974 0.011734,-0.03005 0.031767,-0.0518 0.018602,-0.020319 0.045217,-0.031481 0.026615,-0.011448 0.052945,-0.011448 0.02776,0 0.046362,0.00572 0.018888,0.00544 0.03978,0.016885 l 0.00343,-0.013737 h 0.050369 z M 2.9895377,1.733347 V 1.5590592 q -0.021464,-0.00973 -0.040066,-0.013737 -0.018316,-0.00429 -0.036632,-0.00429 -0.044359,0 -0.06983,0.029763 -0.025471,0.029763 -0.025471,0.086428 0,0.053803 0.018888,0.081563 0.018888,0.02776 0.062675,0.02776 0.023467,0 0.046935,-0.00887 0.023754,-0.00916 0.0435,-0.024326 z M 2.6804559,1.8212063 H 2.6266528 V 1.6391915 q 0,-0.022036 -0.00258,-0.041211 -0.00258,-0.019461 -0.00944,-0.030336 -0.00715,-0.01202 -0.020605,-0.017744 -0.013451,-0.00601 -0.034915,-0.00601 -0.022036,0 -0.046076,0.010875 -0.02404,0.010875 -0.046076,0.02776 V 1.8212063 H 2.4131575 V 1.5015357 h 0.053803 v 0.035487 q 0.025184,-0.020892 0.052086,-0.032625 0.026902,-0.011734 0.055234,-0.011734 0.0518,0 0.078988,0.031194 0.027188,0.031194 0.027188,0.089863 z M 2.3095579,1.4480188 h -0.060672 v -0.055807 h 0.060672 z m -0.00343,0.3731875 H 2.2523206 V 1.5015357 h 0.053803 z m -0.1579794,0 H 2.0943454 V 1.6391915 q 0,-0.022036 -0.00258,-0.041211 -0.00258,-0.019461 -0.00944,-0.030336 -0.00715,-0.01202 -0.020605,-0.017744 -0.013451,-0.00601 -0.034915,-0.00601 -0.022036,0 -0.046076,0.010875 -0.02404,0.010875 -0.046076,0.02776 V 1.8212063 H 1.8808501 V 1.3758997 h 0.053803 v 0.1611232 q 0.025184,-0.020892 0.052086,-0.032625 0.026902,-0.011734 0.055234,-0.011734 0.0518,0 0.078988,0.031194 0.027188,0.031194 0.027188,0.089863 z m -0.332549,-0.00286 q -0.015168,0.00401 -0.033198,0.00658 -0.017744,0.00258 -0.031767,0.00258 -0.048938,0 -0.074409,-0.026329 -0.025471,-0.026329 -0.025471,-0.084425 v -0.169995 h -0.036346 v -0.045217 h 0.036346 v -0.091866 h 0.053803 v 0.091866 H 1.815598 v 0.045217 H 1.704559 v 0.1456691 q 0,0.025184 0.00114,0.039494 0.00114,0.014023 0.00801,0.026329 0.0063,0.011448 0.017171,0.016885 0.011161,0.00515 0.03377,0.00515 0.013165,0 0.027474,-0.00372 0.014309,-0.00401 0.020606,-0.00658 H 1.81559 Z M 1.5792092,1.5015357 1.3926155,1.9391153 H 1.3350919 L 1.3946188,1.8057522 1.2672656,1.5015357 h 0.058382 l 0.098162,0.2369627 0.099021,-0.2369627 z M 1.2048769,1.8212063 H 1.1510738 V 1.6391915 q 0,-0.022036 -0.00258,-0.041211 -0.00258,-0.019461 -0.00944,-0.030336 -0.00715,-0.01202 -0.020606,-0.017744 -0.013451,-0.00601 -0.034915,-0.00601 -0.022036,0 -0.046076,0.010875 -0.02404,0.010875 -0.0460761,0.02776 V 1.8212063 H 0.93757849 V 1.5015357 h 0.0538031 v 0.035487 q 0.0251844,-0.020892 0.052086,-0.032625 0.026902,-0.011734 0.055234,-0.011734 0.0518,0 0.078988,0.031194 0.027188,0.031194 0.027188,0.089863 z m -0.37147041,0 h -0.0535169 v -0.034056 q -0.007155,0.00487 -0.0194607,0.013737 -0.0120198,0.00859 -0.0234673,0.013737 -0.0134508,0.00658 -0.0309082,0.010875 -0.0174574,0.00458 -0.0409247,0.00458 -0.0432142,0 -0.0732638,-0.028619 -0.0300496,-0.028619 -0.0300496,-0.072978 0,-0.036346 0.0154541,-0.058668 0.0157403,-0.022609 0.0446451,-0.035487 0.029191,-0.012878 0.0701158,-0.017457 0.0409247,-0.00458 0.0878594,-0.00687 v -0.0083 q 0,-0.018316 -0.006582,-0.030336 -0.006296,-0.01202 -0.018316,-0.018888 -0.0114475,-0.00658 -0.0274739,-0.00887 -0.0160265,-0.00229 -0.0334839,-0.00229 -0.0211778,0 -0.0472208,0.00572 -0.026043,0.00544 -0.0538031,0.016026 h -0.002862 v -0.054662 q 0.0157403,-0.00429 0.0455037,-0.00944 0.0297634,-0.00515 0.0586683,-0.00515 0.03377,0 0.0586683,0.00572 0.0251844,0.00544 0.0435004,0.018888 0.0180298,0.013165 0.0274739,0.034056 0.009444,0.020892 0.009444,0.0518 z M 0.77988957,1.742505 V 1.653501 q -0.0246121,0.00143 -0.0580959,0.00429 -0.0331977,0.00286 -0.0526584,0.0083 -0.0231811,0.00658 -0.0374905,0.020605 -0.0143093,0.013737 -0.0143093,0.038063 0,0.027474 0.0165988,0.041497 0.0165988,0.013737 0.0506551,0.013737 0.0283325,0 0.0517998,-0.010875 0.0234673,-0.011161 0.0435004,-0.026615 z M 2.435337,1.214908 q 0,0.043758 -0.036346,0.071787 -0.036059,0.028028 -0.098735,0.028028 -0.035487,0 -0.065251,-0.0083 -0.029477,-0.00858 -0.04951,-0.01859 V 1.227489 h 0.00286 q 0.025471,0.019162 0.056665,0.030602 0.031194,0.011154 0.059813,0.011154 0.035487,0 0.05552,-0.01144 0.020034,-0.01144 0.020034,-0.036036 0,-0.018876 -0.010876,-0.0286 -0.010876,-0.00973 -0.041783,-0.016588 -0.011448,-0.00257 -0.03005,-0.00601 -0.018316,-0.00343 -0.033484,-0.00744 -0.042069,-0.011154 -0.059813,-0.032604 -0.017458,-0.021736 -0.017458,-0.053197 0,-0.019734 0.00801,-0.03718 0.0083,-0.017446 0.024898,-0.031174 0.016026,-0.0134421 0.040638,-0.0211642 0.024898,-0.008008 0.05552,-0.008008 0.028618,0 0.05781,0.00715 0.029477,0.006864 0.048938,0.0168742 v 0.057486 H 2.41988 q -0.020606,-0.015158 -0.050083,-0.025454 -0.029478,-0.010582 -0.05781,-0.010582 -0.029477,0 -0.049797,0.01144 -0.02032,0.011154 -0.02032,0.033462 0,0.019734 0.012306,0.029744 0.01202,0.01001 0.038921,0.016302 0.014882,0.00343 0.033198,0.00687 0.018602,0.00343 0.030908,0.00629 0.03749,0.00858 0.05781,0.029459 0.020319,0.021164 0.020319,0.056057 z m -0.3056475,0 q 0,0.043758 -0.036346,0.071787 -0.03606,0.028028 -0.098735,0.028028 -0.035487,0 -0.065251,-0.0083 -0.029478,-0.00858 -0.04951,-0.01859 V 1.227489 h 0.00286 q 0.02547,0.019162 0.056665,0.030602 0.031194,0.011154 0.059813,0.011154 0.035487,0 0.05552,-0.01144 0.020033,-0.01144 0.020033,-0.036036 0,-0.018876 -0.010876,-0.0286 -0.010876,-0.00973 -0.041783,-0.016588 -0.011448,-0.00257 -0.03005,-0.00601 -0.018316,-0.00343 -0.033484,-0.00744 -0.042069,-0.011154 -0.059813,-0.032604 -0.017458,-0.021736 -0.017458,-0.053197 0,-0.019734 0.00801,-0.03718 0.0083,-0.017446 0.024898,-0.031174 0.016026,-0.0134421 0.040638,-0.0211642 0.024898,-0.008008 0.05552,-0.008008 0.028618,0 0.05781,0.00715 0.029477,0.006864 0.048938,0.0168742 v 0.057486 h -0.00286 Q 2.093627,1.0461598 2.0641495,1.0358641 2.034672,1.0252825 2.00634,1.0252825 q -0.029477,0 -0.049796,0.01144 -0.02032,0.011154 -0.02032,0.033462 0,0.019734 0.012306,0.029744 0.01202,0.01001 0.038921,0.016302 0.014882,0.00343 0.033198,0.00687 0.018602,0.00343 0.030908,0.00629 0.03749,0.00858 0.05781,0.029459 0.020319,0.021164 0.020319,0.056057 z M 1.7977128,0.9340529 h -0.060672 v -0.0557706 h 0.060672 z m -0.00343,0.3729482 H 1.7404754 V 0.9875355 h 0.053803 z m -0.1579751,0 H 1.5825004 V 1.125103 q 0,-0.020592 -0.002,-0.039754 -0.00172,-0.019162 -0.00772,-0.030602 -0.00658,-0.012298 -0.018888,-0.01859 -0.012306,-0.00629 -0.035487,-0.00629 -0.022609,0 -0.045217,0.01144 -0.022608,0.011154 -0.045217,0.0286 8.586e-4,0.00658 0.00143,0.015444 5.724e-4,0.00858 5.724e-4,0.017161 v 0.2044878 h -0.05381 V 1.125103 q 0,-0.021164 -0.002,-0.04004 -0.00172,-0.019162 -0.00772,-0.030602 -0.00658,-0.012298 -0.018888,-0.018304 -0.012306,-0.00629 -0.035487,-0.00629 -0.022036,0 -0.044359,0.010869 -0.022036,0.010868 -0.044073,0.027742 V 1.3070011 H 1.169819 V 0.9875355 h 0.053803 v 0.0354644 q 0.025184,-0.020878 0.050083,-0.0326043 0.025184,-0.0117261 0.053517,-0.0117261 0.032625,0 0.055234,0.0137282 0.022895,0.0137282 0.034056,0.0380385 0.032625,-0.027456 0.059527,-0.0394684 0.026902,-0.0122982 0.057523,-0.0122982 0.052658,0 0.077557,0.0320323 0.025184,0.031747 0.025184,0.088946 z" />
      </g>
    </g>
  </g>
</svg>
