<?xml version="1.0" encoding="UTF-8" standalone="no"?>
<!-- Created with Inkscape (http://www.inkscape.org/) -->

<svg
   xmlns:dc="http://purl.org/dc/elements/1.1/"
   xmlns:cc="http://creativecommons.org/ns#"
   xmlns:rdf="http://www.w3.org/1999/02/22-rdf-syntax-ns#"
   xmlns:svg="http://www.w3.org/2000/svg"
   xmlns="http://www.w3.org/2000/svg"
   xmlns:sodipodi="http://sodipodi.sourceforge.net/DTD/sodipodi-0.dtd"
   xmlns:inkscape="http://www.inkscape.org/namespaces/inkscape"
   width="5.2796659mm"
   height="2.3734074mm"
   viewBox="0 0 5.279666 2.3734074"
   version="1.1"
   id="svg4699"
   inkscape:version="0.92.4 (5da689c313, 2019-01-14)"
   sodipodi:docname="tosLinkLed_on.svg">
  <defs
     id="defs4693" />
  <sodipodi:namedview
     id="base"
     pagecolor="#ffffff"
     bordercolor="#666666"
     borderopacity="1.0"
     inkscape:pageopacity="0.0"
     inkscape:pageshadow="2"
     inkscape:zoom="22.4"
     inkscape:cx="-8.8215888"
     inkscape:cy="4.9764778"
     inkscape:document-units="mm"
     inkscape:current-layer="layer1"
     showgrid="false"
     fit-margin-top="0"
     fit-margin-left="0"
     fit-margin-right="0"
     fit-margin-bottom="0"
     units="mm"
     inkscape:window-width="1858"
     inkscape:window-height="1057"
     inkscape:window-x="54"
     inkscape:window-y="-8"
     inkscape:window-maximized="1" />
  <metadata
     id="metadata4696">
    <rdf:RDF>
      <cc:Work
         rdf:about="">
        <dc:format>image/svg+xml</dc:format>
        <dc:type
           rdf:resource="http://purl.org/dc/dcmitype/StillImage" />
        <dc:title />
      </cc:Work>
    </rdf:RDF>
  </metadata>
  <g
     inkscape:label="Layer 1"
     inkscape:groupmode="layer"
     id="layer1"
     transform="translate(-44.088163,-138.9695)">
    <rect
       style="opacity:1;fill:#ff0000;fill-opacity:1;stroke:#800000;stroke-width:0.24913539;stroke-linejoin:miter;stroke-miterlimit:4;stroke-dasharray:none;stroke-opacity:1;paint-order:fill markers stroke"
       id="rect5248"
       width="5.0305305"
       height="2.1242719"
       x="44.21273"
       y="139.09407"
       rx="0.51911193" />
    <g
       aria-label="LINK"
       style="font-style:normal;font-weight:normal;font-size:2.11666656px;line-height:1.25;font-family:sans-serif;letter-spacing:0px;word-spacing:0px;fill:#ffffff;fill-opacity:1;stroke:none;stroke-width:0.26458332"
       id="text831">
      <path
         d="m 45.590083,140.74739 q 0,0.0207 -0.0021,0.0351 -0.0021,0.0134 -0.0072,0.0238 -0.0041,0.009 -0.01137,0.0145 -0.0062,0.004 -0.0155,0.004 h -0.591179 q -0.02377,0 -0.04547,-0.0155 -0.02067,-0.0165 -0.02067,-0.0568 v -1.23817 q 0,-0.008 0.0041,-0.0145 0.0041,-0.006 0.01447,-0.009 0.01034,-0.004 0.02791,-0.006 0.01757,-0.003 0.04237,-0.003 0.02584,0 0.04237,0.003 0.01757,0.002 0.0279,0.006 0.01033,0.003 0.01447,0.009 0.0041,0.006 0.0041,0.0145 v 1.15652 h 0.479557 q 0.0093,0 0.0155,0.005 0.0072,0.004 0.01137,0.0134 0.0052,0.008 0.0072,0.0227 0.0021,0.0145 0.0021,0.0351 z"
         style="font-style:normal;font-variant:normal;font-weight:normal;font-stretch:normal;font-size:2.11666656px;font-family:Calibri;-inkscape-font-specification:Calibri;fill:#ffffff;stroke-width:0.26458332"
         id="path815" />
      <path
         d="m 45.963187,140.79803 q 0,0.008 -0.0041,0.0145 -0.0041,0.006 -0.01447,0.0103 -0.01034,0.003 -0.02791,0.005 -0.01654,0.003 -0.04237,0.003 -0.02481,0 -0.04237,-0.003 -0.01757,-0.002 -0.02791,-0.005 -0.01034,-0.004 -0.01447,-0.0103 -0.0041,-0.006 -0.0041,-0.0145 v -1.28364 q 0,-0.008 0.0041,-0.0145 0.0052,-0.006 0.0155,-0.009 0.01137,-0.004 0.02791,-0.006 0.01757,-0.003 0.04134,-0.003 0.02584,0 0.04237,0.003 0.01757,0.002 0.02791,0.006 0.01033,0.003 0.01447,0.009 0.0041,0.006 0.0041,0.0145 z"
         style="font-style:normal;font-variant:normal;font-weight:normal;font-stretch:normal;font-size:2.11666656px;font-family:Calibri;-inkscape-font-specification:Calibri;fill:#ffffff;stroke-width:0.26458332"
         id="path817" />
      <path
         d="m 47.329512,140.75152 q 0,0.0207 -0.0072,0.0351 -0.0062,0.0145 -0.01757,0.0238 -0.01033,0.009 -0.02377,0.0134 -0.01344,0.004 -0.02687,0.004 h -0.05684 q -0.02687,0 -0.04754,-0.005 -0.01964,-0.006 -0.03824,-0.0207 -0.01757,-0.0155 -0.03617,-0.0413 -0.01757,-0.0258 -0.03927,-0.0661 L 46.61431,139.934 q -0.03307,-0.0589 -0.06718,-0.12299 -0.03307,-0.0651 -0.06201,-0.12609 h -0.0021 q 0.0021,0.0744 0.0031,0.15193 0.001,0.0775 0.001,0.154 v 0.80718 q 0,0.007 -0.0041,0.0145 -0.0041,0.006 -0.01447,0.0103 -0.0093,0.003 -0.02584,0.005 -0.0155,0.003 -0.04031,0.003 -0.02481,0 -0.04134,-0.003 -0.0155,-0.002 -0.02481,-0.005 -0.0093,-0.004 -0.01344,-0.0103 -0.0041,-0.007 -0.0041,-0.0145 V 139.564 q 0,-0.0413 0.02274,-0.0589 0.02274,-0.0176 0.04961,-0.0176 h 0.08475 q 0.02997,0 0.04961,0.005 0.02067,0.005 0.03617,0.0176 0.01654,0.0114 0.03101,0.0331 0.0155,0.0207 0.03307,0.0527 l 0.324528,0.58704 q 0.02997,0.0538 0.05788,0.10542 0.0279,0.0506 0.05374,0.10026 0.02584,0.0496 0.05064,0.0982 0.02584,0.0475 0.05064,0.0961 h 0.001 q -0.0021,-0.0816 -0.0031,-0.1695 0,-0.0889 0,-0.17053 v -0.72554 q 0,-0.007 0.0041,-0.0134 0.0041,-0.006 0.01344,-0.0103 0.01033,-0.005 0.02584,-0.007 0.01654,-0.002 0.04237,-0.002 0.02274,0 0.03927,0.002 0.01654,0.002 0.02584,0.007 0.0093,0.004 0.01344,0.0103 0.0041,0.006 0.0041,0.0134 z"
         style="font-style:normal;font-variant:normal;font-weight:normal;font-stretch:normal;font-size:2.11666656px;font-family:Calibri;-inkscape-font-specification:Calibri;fill:#ffffff;stroke-width:0.26458332"
         id="path819" />
      <path
         d="m 48.559411,140.79597 q 0,0.008 -0.0041,0.0155 -0.0031,0.006 -0.01344,0.0103 -0.01033,0.004 -0.0279,0.006 -0.01757,0.003 -0.04548,0.003 -0.03617,0 -0.05891,-0.003 -0.02274,-0.003 -0.03411,-0.0114 -0.01137,-0.008 -0.0186,-0.0186 l -0.491959,-0.66869 v 0.66869 q 0,0.007 -0.0041,0.0145 -0.0041,0.006 -0.01447,0.0103 -0.01034,0.003 -0.02791,0.005 -0.01654,0.003 -0.04237,0.003 -0.0248,0 -0.04237,-0.003 -0.01757,-0.002 -0.02791,-0.005 -0.01034,-0.004 -0.01447,-0.0103 -0.0041,-0.007 -0.0041,-0.0145 v -1.28364 q 0,-0.008 0.0041,-0.0145 0.0041,-0.006 0.01447,-0.009 0.01034,-0.004 0.02791,-0.006 0.01757,-0.003 0.04237,-0.003 0.02584,0 0.04237,0.003 0.01757,0.002 0.02791,0.006 0.01034,0.003 0.01447,0.009 0.0041,0.006 0.0041,0.0145 v 0.59428 l 0.473356,-0.59428 q 0.0062,-0.009 0.01447,-0.0155 0.0083,-0.006 0.01964,-0.009 0.0124,-0.004 0.02894,-0.006 0.01757,-0.002 0.04444,-0.002 0.02687,0 0.04341,0.003 0.01654,0.002 0.02584,0.006 0.01034,0.004 0.01344,0.0103 0.0041,0.006 0.0041,0.0134 0,0.0134 -0.0072,0.0269 -0.0062,0.0134 -0.02481,0.0372 l -0.443384,0.5302 0.47749,0.63459 q 0.01757,0.0269 0.02067,0.0372 0.0041,0.009 0.0041,0.0155 z"
         style="font-style:normal;font-variant:normal;font-weight:normal;font-stretch:normal;font-size:2.11666656px;font-family:Calibri;-inkscape-font-specification:Calibri;fill:#ffffff;stroke-width:0.26458332"
         id="path821" />
    </g>
  </g>
</svg>
