<?xml version="1.0" encoding="UTF-8" standalone="no"?>
<!-- Created with Inkscape (http://www.inkscape.org/) -->

<svg
   xmlns:dc="http://purl.org/dc/elements/1.1/"
   xmlns:cc="http://creativecommons.org/ns#"
   xmlns:rdf="http://www.w3.org/1999/02/22-rdf-syntax-ns#"
   xmlns:svg="http://www.w3.org/2000/svg"
   xmlns="http://www.w3.org/2000/svg"
   xmlns:sodipodi="http://sodipodi.sourceforge.net/DTD/sodipodi-0.dtd"
   xmlns:inkscape="http://www.inkscape.org/namespaces/inkscape"
   width="81.279427mm"
   height="128.4993mm"
   viewBox="0 0 81.279426 128.4993"
   version="1.1"
   id="svg30767"
   inkscape:version="0.92.4 (5da689c313, 2019-01-14)"
   sodipodi:docname="ascii.svg">
  <defs
     id="defs30761" />
  <sodipodi:namedview
     id="base"
     pagecolor="#ffffff"
     bordercolor="#666666"
     borderopacity="1.0"
     inkscape:pageopacity="0.0"
     inkscape:pageshadow="2"
     inkscape:zoom="2.8"
     inkscape:cx="99.488334"
     inkscape:cy="360.26073"
     inkscape:document-units="mm"
     inkscape:current-layer="g1131"
     showgrid="false"
     fit-margin-top="0"
     fit-margin-left="0"
     fit-margin-right="0"
     fit-margin-bottom="0"
     inkscape:window-width="1858"
     inkscape:window-height="1057"
     inkscape:window-x="54"
     inkscape:window-y="-8"
     inkscape:window-maximized="1"
     inkscape:snap-bbox="true"
     inkscape:bbox-nodes="true"
     units="mm" />
  <metadata
     id="metadata30764">
    <rdf:RDF>
      <cc:Work
         rdf:about="">
        <dc:format>image/svg+xml</dc:format>
        <dc:type
           rdf:resource="http://purl.org/dc/dcmitype/StillImage" />
        <dc:title />
      </cc:Work>
    </rdf:RDF>
  </metadata>
  <g
     inkscape:label="sfondone"
     inkscape:groupmode="layer"
     id="layer1"
     transform="translate(-30.557143,-52.920963)"
     style="display:inline"
     sodipodi:insensitive="true">
    <rect
       style="opacity:1;fill:#333333;fill-opacity:1;stroke:#ff0000;stroke-width:0.03463956;stroke-linecap:square;stroke-miterlimit:4;stroke-dasharray:none;stroke-opacity:1;paint-order:fill markers stroke"
       id="rect1113"
       width="81.244789"
       height="128.46466"
       x="30.574463"
       y="52.938293" />
  </g>
  <g
     inkscape:groupmode="layer"
     id="layer4"
     inkscape:label="logo"
     style="display:inline"
     transform="translate(0,6.6726685e-6)"
     sodipodi:insensitive="true">
    <g
       style="display:inline"
       id="g910"
       transform="translate(-8.841895)">
      <g
         transform="matrix(0.25059372,0,0,0.25059373,32.49241,-2.3123362)"
         id="g1293"
         style="display:inline;enable-background:new">
        <g
           style="clip-rule:evenodd;fill:#000000;fill-rule:evenodd;image-rendering:optimizeQuality;shape-rendering:geometricPrecision;text-rendering:geometricPrecision"
           id="g922"
           transform="matrix(0.26666672,0,0,0.26666672,4.2542977,1.457816)">
          <rect
             style="fill:#000000;stroke:none;stroke-width:0.20094904"
             y="105.19479"
             x="-39.018856"
             height="137.03459"
             width="30.330647"
             transform="rotate(-45)"
             class="fil0 str0"
             id="_196666080" />
          <rect
             style="fill:#000000;stroke:none;stroke-width:0.20094904"
             y="-92.370834"
             x="-188.87741"
             height="137.03459"
             width="30.330647"
             transform="rotate(-135)"
             class="fil2 str1"
             id="_196664592" />
        </g>
        <g
           style="clip-rule:evenodd;fill-rule:evenodd;image-rendering:optimizeQuality;shape-rendering:geometricPrecision;text-rendering:geometricPrecision"
           id="g918"
           transform="matrix(0.26666672,0,0,0.26666672,4.2542977,1.457816)">
          <circle
             id="_196670520"
             class="fil0 str0"
             cx="105.966"
             cy="139.7"
             r="81.848534"
             style="fill:none;stroke:#000000;stroke-width:17.19791603;stroke-miterlimit:4;stroke-dasharray:none" />
          <rect
             y="39.243301"
             x="85.549797"
             height="14.20678"
             width="40.832603"
             id="rect875"
             style="opacity:1;fill:#000000;stroke:none;stroke-width:0;stroke-miterlimit:4;stroke-dasharray:none" />
          <rect
             style="opacity:1;fill:#000000;stroke:none;stroke-width:0;stroke-miterlimit:4;stroke-dasharray:none"
             id="rect881"
             width="40.832603"
             height="14.20678"
             x="85.549797"
             y="225.94951" />
          <rect
             transform="rotate(90)"
             style="opacity:1;fill:#000000;stroke:none;stroke-width:0;stroke-miterlimit:4;stroke-dasharray:none"
             id="rect885"
             width="40.832603"
             height="14.20678"
             x="119.28303"
             y="-206.423" />
          <rect
             y="-19.716515"
             x="119.28302"
             height="14.20678"
             width="40.832603"
             id="rect889"
             style="opacity:1;fill:#000000;stroke:none;stroke-width:0;stroke-miterlimit:4;stroke-dasharray:none"
             transform="rotate(90)" />
          <rect
             y="-274.16934"
             x="3.4366226"
             height="14.20678"
             width="40.832603"
             id="rect893"
             style="opacity:1;fill:#000000;stroke:none;stroke-width:0;stroke-miterlimit:4;stroke-dasharray:none"
             transform="rotate(135)" />
          <rect
             transform="rotate(135)"
             style="opacity:1;fill:#000000;stroke:none;stroke-width:0;stroke-miterlimit:4;stroke-dasharray:none"
             id="rect895"
             width="40.832603"
             height="14.20678"
             x="3.4366229"
             y="-87.462669" />
          <rect
             y="63.799263"
             x="-195.53125"
             height="14.20678"
             width="40.832603"
             id="rect897"
             style="opacity:1;fill:#000000;stroke:none;stroke-width:0;stroke-miterlimit:4;stroke-dasharray:none"
             transform="rotate(-135)" />
          <rect
             transform="rotate(-135)"
             style="opacity:1;fill:#000000;stroke:none;stroke-width:0;stroke-miterlimit:4;stroke-dasharray:none"
             id="rect899"
             width="40.832603"
             height="14.20678"
             x="-195.53117"
             y="-122.90741" />
        </g>
        <g
           style="clip-rule:evenodd;fill:#000000;fill-rule:evenodd;image-rendering:optimizeQuality;shape-rendering:geometricPrecision;text-rendering:geometricPrecision"
           id="g907"
           transform="matrix(0.26666672,0,0,0.26666672,3.8261229,1.457816)">
          <polygon
             id="_196665264"
             class="fil2 str0"
             points="171.116,75.7262 178.83,75.7262 178.747,101.794 200.556,101.754 200.556,75.7262 207.953,75.7262 189.431,50.734 "
             style="fill:#000000;stroke:#000000;stroke-width:0.0762" />
          <polygon
             id="_196665048"
             class="fil0 str2"
             points="171.116,202.598 178.83,202.598 178.747,228.666 200.556,228.625 200.556,202.598 207.953,202.598 189.431,177.606 "
             style="fill:#000000;stroke:#ffffff;stroke-width:0.0762" />
          <polygon
             id="_196666392"
             class="fil1 str1"
             points="171.116,139.162 178.83,139.162 178.747,165.23 200.556,165.189 200.556,139.162 207.953,139.162 189.431,114.17 "
             style="fill:#000000;stroke:#ff0000;stroke-width:0.0762" />
        </g>
      </g>
    </g>
  </g>
  <g
     inkscape:groupmode="layer"
     id="layer2"
     inkscape:label="text"
     style="display:none"
     transform="translate(0,6.6726685e-6)"
     sodipodi:insensitive="true">
    <text
       xml:space="preserve"
       style="font-style:italic;font-variant:normal;font-weight:normal;font-stretch:normal;font-size:3.17499995px;line-height:1.25;font-family:Consolas;-inkscape-font-specification:'Consolas Italic';text-align:center;letter-spacing:0px;word-spacing:0px;text-anchor:middle;display:inline;fill:#ff0000;fill-opacity:1;stroke:none;stroke-width:0.26458332;enable-background:new"
       x="48.871727"
       y="9.3603964"
       id="text3635"><tspan
         sodipodi:role="line"
         id="tspan3633"
         x="48.871727"
         y="9.3603964"
         style="font-style:italic;font-variant:normal;font-weight:bold;font-stretch:normal;font-size:5.64444447px;font-family:Consolas;-inkscape-font-specification:'Consolas Bold Italic';fill:#ff0000;stroke-width:0.26458332">ascii</tspan></text>
    <text
       id="text885"
       y="121.09598"
       x="2.7012866"
       style="font-style:italic;font-variant:normal;font-weight:bold;font-stretch:normal;font-size:2.82222223px;line-height:1.25;font-family:Consolas;-inkscape-font-specification:'Consolas Bold Italic';letter-spacing:0px;word-spacing:0px;display:inline;fill:#ffffff;fill-opacity:1;stroke:none;stroke-width:0.26458332"
       xml:space="preserve"><tspan
         style="font-style:italic;font-variant:normal;font-weight:bold;font-stretch:normal;font-size:2.82222223px;font-family:Consolas;-inkscape-font-specification:'Consolas Bold Italic';fill:#ffffff;stroke-width:0.26458332"
         y="121.09598"
         x="2.7012866"
         id="tspan883"
         sodipodi:role="line">clock</tspan></text>
    <text
       id="text1343"
       y="120.78867"
       x="52.306229"
       style="font-style:italic;font-variant:normal;font-weight:bold;font-stretch:normal;font-size:2.82222223px;line-height:1.25;font-family:Consolas;-inkscape-font-specification:'Consolas Bold Italic';letter-spacing:0px;word-spacing:0px;display:inline;fill:#ffffff;fill-opacity:1;stroke:none;stroke-width:0.26458332"
       xml:space="preserve"><tspan
         style="font-style:italic;font-variant:normal;font-weight:bold;font-stretch:normal;font-size:2.82222223px;font-family:Consolas;-inkscape-font-specification:'Consolas Bold Italic';fill:#ffffff;stroke-width:0.26458332"
         y="120.78867"
         x="52.306229"
         id="tspan1341"
         sodipodi:role="line">output</tspan></text>
    <text
       xml:space="preserve"
       style="font-style:italic;font-variant:normal;font-weight:bold;font-stretch:normal;font-size:2.82222223px;line-height:1.25;font-family:Consolas;-inkscape-font-specification:'Consolas Bold Italic';letter-spacing:0px;word-spacing:0px;display:inline;fill:#ffffff;fill-opacity:1;stroke:none;stroke-width:0.26458332"
       x="28.280972"
       y="121.04636"
       id="text1347"><tspan
         sodipodi:role="line"
         id="tspan1345"
         x="28.280972"
         y="121.04636"
         style="font-style:italic;font-variant:normal;font-weight:bold;font-stretch:normal;font-size:2.82222223px;font-family:Consolas;-inkscape-font-specification:'Consolas Bold Italic';fill:#ffffff;stroke-width:0.26458332">reset</tspan></text>
  </g>
  <g
     transform="translate(0,6.6726685e-6)"
     style="display:inline"
     inkscape:label="text copy"
     id="g1131"
     inkscape:groupmode="layer">
    <g
       aria-label="ascii"
       style="font-style:italic;font-variant:normal;font-weight:normal;font-stretch:normal;font-size:3.17499995px;line-height:1.25;font-family:Consolas;-inkscape-font-specification:'Consolas Italic';text-align:center;letter-spacing:0px;word-spacing:0px;text-anchor:middle;display:inline;fill:#ff0000;fill-opacity:1;stroke:none;stroke-width:0.26458332;enable-background:new"
       id="text1117"
       transform="translate(7.3057223,1.6055067)">
      <path
         d="m 34.791547,7.8182788 q -0.407899,0 -0.620117,-0.2535591 -0.209462,-0.253559 -0.209462,-0.7193359 0,-0.4216797 0.112999,-0.7772135 0.112999,-0.35829 0.327973,-0.6146051 0.214974,-0.2590712 0.526411,-0.4023871 0.314193,-0.1460721 0.711068,-0.1460721 0.212217,0 0.377582,0.030317 0.168121,0.027561 0.292144,0.066146 l 0.479557,-0.1019748 -0.30868,1.551671 q -0.01654,0.088194 -0.03307,0.1901692 -0.01654,0.099219 -0.03583,0.2480469 -0.01654,0.1460721 -0.03859,0.3555339 -0.02205,0.2094618 -0.04961,0.5098741 h -0.54846 l 0.02205,-0.507118 q -0.06339,0.096463 -0.159853,0.1984375 -0.09646,0.099219 -0.225998,0.181901 -0.126779,0.082682 -0.283876,0.1350477 -0.15434,0.055122 -0.336241,0.055122 z m 1.209918,-2.3261285 q -0.0882,-0.030317 -0.181901,-0.046853 -0.09095,-0.016536 -0.195682,-0.016536 -0.195681,0 -0.344509,0.071658 -0.146072,0.068902 -0.253559,0.1846571 -0.107487,0.1129992 -0.179145,0.2590712 -0.0689,0.1460721 -0.110243,0.2976563 -0.04134,0.1515842 -0.05788,0.3004123 -0.01654,0.146072 -0.01654,0.2590712 0,0.2204861 0.07442,0.3362413 0.07717,0.1157552 0.23151,0.1157552 0.126779,0 0.270095,-0.1019748 0.143316,-0.1019748 0.272852,-0.2618273 0.129536,-0.1598524 0.225998,-0.3555338 0.09922,-0.1956815 0.135048,-0.3830947 z"
         style="font-style:italic;font-variant:normal;font-weight:bold;font-stretch:normal;font-size:5.64444447px;font-family:Consolas;-inkscape-font-specification:'Consolas Bold Italic';fill:#ff0000;stroke-width:0.26458332"
         id="path1168"
         inkscape:connector-curvature="0" />
      <path
         d="m 37.117676,7.104455 q 0.281119,0.099219 0.537435,0.1488281 0.256315,0.049609 0.476801,0.049609 0.322461,0 0.468533,-0.1019748 0.148828,-0.1019749 0.148828,-0.2590712 0,-0.055122 -0.02205,-0.099219 -0.02205,-0.046853 -0.07993,-0.088194 -0.05788,-0.041341 -0.159852,-0.082682 -0.09922,-0.041341 -0.259072,-0.090951 -0.38585,-0.1185113 -0.578776,-0.3197049 -0.192925,-0.2011936 -0.192925,-0.5098741 0,-0.1763889 0.08819,-0.3307292 0.08819,-0.1570964 0.256316,-0.2728516 0.170876,-0.1185112 0.421679,-0.1846571 0.250803,-0.068902 0.57602,-0.068902 0.275608,0 0.471289,0.024805 0.195682,0.022049 0.341754,0.052365 v 0.5484593 q -0.26734,-0.079926 -0.471289,-0.104731 -0.20395,-0.024805 -0.369315,-0.024805 -0.170876,0 -0.286631,0.030317 -0.115756,0.027561 -0.184658,0.079926 -0.0689,0.052365 -0.09922,0.1102431 -0.02756,0.055121 -0.02756,0.107487 0,0.06339 0.02481,0.1129991 0.0248,0.049609 0.08819,0.093707 0.06339,0.044097 0.170877,0.088194 0.107487,0.044097 0.270095,0.093707 0.374827,0.1185113 0.56224,0.3031684 0.187413,0.1846571 0.187413,0.4575087 0,0.2452908 -0.104731,0.4244358 -0.104731,0.1763889 -0.286632,0.2949002 -0.181901,0.1185112 -0.427192,0.1736328 -0.24529,0.057878 -0.52641,0.057878 -0.316949,0 -0.567752,-0.030317 -0.248047,-0.027561 -0.446484,-0.07717 z"
         style="font-style:italic;font-variant:normal;font-weight:bold;font-stretch:normal;font-size:5.64444447px;font-family:Consolas;-inkscape-font-specification:'Consolas Bold Italic';fill:#ff0000;stroke-width:0.26458332"
         id="path1170"
         inkscape:connector-curvature="0" />
      <path
         d="m 42.456196,7.6308656 q -0.107487,0.041341 -0.225999,0.074414 -0.115755,0.033073 -0.23151,0.055122 -0.115755,0.022049 -0.223242,0.033073 -0.107487,0.011024 -0.195682,0.011024 -0.609092,0 -0.926041,-0.2728516 -0.314193,-0.2728515 -0.314193,-0.8047743 0,-0.2204861 0.04685,-0.4409722 0.04961,-0.2204861 0.143316,-0.4216797 0.09646,-0.2039497 0.242535,-0.3775825 0.146072,-0.1736328 0.338997,-0.3004123 0.195682,-0.1295356 0.438217,-0.2011936 0.24529,-0.074414 0.540191,-0.074414 0.256315,0 0.46302,0.035829 0.206706,0.035829 0.355534,0.082682 l -0.124023,0.6311414 q -0.15434,-0.07717 -0.347266,-0.1240234 -0.192925,-0.049609 -0.37207,-0.049609 -0.192925,0 -0.341754,0.057878 -0.146072,0.055122 -0.259071,0.1488282 -0.110243,0.093707 -0.187413,0.2149739 -0.07441,0.1212674 -0.121267,0.250803 -0.04685,0.1295356 -0.0689,0.2590712 -0.01929,0.1267795 -0.01929,0.2315104 0,0.2811198 0.165365,0.4244357 0.165364,0.143316 0.465777,0.143316 0.192925,0 0.38585,-0.044097 0.192926,-0.046853 0.372071,-0.1185113 z"
         style="font-style:italic;font-variant:normal;font-weight:bold;font-stretch:normal;font-size:5.64444447px;font-family:Consolas;-inkscape-font-specification:'Consolas Bold Italic';fill:#ff0000;stroke-width:0.26458332"
         id="path1172"
         inkscape:connector-curvature="0" />
      <path
         d="m 44.92564,6.817823 q -0.04961,0.2618273 0.0028,0.3693143 0.05237,0.1047309 0.206706,0.1047309 0.129536,0 0.286632,-0.055122 0.157096,-0.057878 0.35829,-0.1543402 v 0.5153863 q -0.179145,0.096463 -0.385851,0.1570963 -0.203949,0.06339 -0.416167,0.06339 -0.471289,0 -0.655946,-0.2425348 -0.184658,-0.2452908 -0.07717,-0.7799696 l 0.179145,-0.903993 q 0.05237,-0.2618273 -0.0028,-0.3665582 -0.05512,-0.107487 -0.206705,-0.107487 -0.12678,0 -0.286632,0.057878 -0.157097,0.055122 -0.355534,0.1515842 V 5.1118117 q 0.179145,-0.099219 0.383094,-0.1598524 0.20395,-0.060634 0.418924,-0.060634 0.468533,0 0.65319,0.2452908 0.184657,0.2452908 0.07993,0.7772136 z m 0.553972,-2.6541015 q 0,0.099219 -0.03859,0.1846571 -0.03858,0.085438 -0.104731,0.1488281 -0.06339,0.060634 -0.148828,0.096463 -0.08268,0.033073 -0.176389,0.033073 -0.09646,0 -0.176389,-0.033073 -0.07993,-0.035829 -0.137804,-0.09095 -0.05788,-0.057878 -0.09095,-0.1322917 -0.03032,-0.07717 -0.03032,-0.1598524 0,-0.099219 0.03858,-0.1819011 0.03858,-0.085438 0.104731,-0.146072 0.06614,-0.06339 0.151584,-0.099219 0.08544,-0.035829 0.179145,-0.035829 0.09922,0 0.176389,0.035829 0.07993,0.033073 0.135047,0.09095 0.05788,0.057878 0.08819,0.1322917 0.03032,0.074414 0.03032,0.1570964 z"
         style="font-style:italic;font-variant:normal;font-weight:bold;font-stretch:normal;font-size:5.64444447px;font-family:Consolas;-inkscape-font-specification:'Consolas Bold Italic';fill:#ff0000;stroke-width:0.26458332"
         id="path1174"
         inkscape:connector-curvature="0" />
      <path
         d="m 48.034495,6.817823 q -0.04961,0.2618273 0.0028,0.3693143 0.05237,0.1047309 0.206705,0.1047309 0.129536,0 0.286632,-0.055122 0.157097,-0.057878 0.35829,-0.1543402 v 0.5153863 q -0.179145,0.096463 -0.38585,0.1570963 -0.20395,0.06339 -0.416168,0.06339 -0.471289,0 -0.655946,-0.2425348 -0.184657,-0.2452908 -0.07717,-0.7799696 l 0.179145,-0.903993 q 0.05237,-0.2618273 -0.0028,-0.3665582 -0.05512,-0.107487 -0.206706,-0.107487 -0.12678,0 -0.286632,0.057878 -0.157096,0.055122 -0.355534,0.1515842 V 5.1118117 q 0.179145,-0.099219 0.383095,-0.1598524 0.203949,-0.060634 0.418923,-0.060634 0.468533,0 0.65319,0.2452908 0.184658,0.2452908 0.07993,0.7772136 z m 0.553971,-2.6541015 q 0,0.099219 -0.03858,0.1846571 -0.03858,0.085438 -0.104731,0.1488281 -0.06339,0.060634 -0.148828,0.096463 -0.08268,0.033073 -0.176389,0.033073 -0.09646,0 -0.176389,-0.033073 -0.07993,-0.035829 -0.137804,-0.09095 -0.05788,-0.057878 -0.09095,-0.1322917 -0.03032,-0.07717 -0.03032,-0.1598524 0,-0.099219 0.03859,-0.1819011 0.03858,-0.085438 0.104731,-0.146072 0.06615,-0.06339 0.151584,-0.099219 0.08544,-0.035829 0.179145,-0.035829 0.09922,0 0.176389,0.035829 0.07993,0.033073 0.135048,0.09095 0.05788,0.057878 0.08819,0.1322917 0.03032,0.074414 0.03032,0.1570964 z"
         style="font-style:italic;font-variant:normal;font-weight:bold;font-stretch:normal;font-size:5.64444447px;font-family:Consolas;-inkscape-font-specification:'Consolas Bold Italic';fill:#ff0000;stroke-width:0.26458332"
         id="path1176"
         inkscape:connector-curvature="0" />
    </g>
    <g
       aria-label="clock"
       style="font-style:italic;font-variant:normal;font-weight:bold;font-stretch:normal;font-size:2.82222223px;line-height:1.25;font-family:Consolas;-inkscape-font-specification:'Consolas Bold Italic';letter-spacing:0px;word-spacing:0px;display:inline;fill:#ffffff;fill-opacity:1;stroke:none;stroke-width:0.26458332"
       id="text1121"
       transform="translate(0,-2.4163604)">
      <path
         d="m 3.9236064,123.45036 q -0.053743,0.0207 -0.1129991,0.0372 -0.057878,0.0165 -0.1157552,0.0276 -0.057878,0.011 -0.1116211,0.0165 -0.053743,0.006 -0.097841,0.006 -0.3045465,0 -0.4630208,-0.13642 -0.1570964,-0.13643 -0.1570964,-0.40239 0,-0.11024 0.023427,-0.22049 0.024805,-0.11024 0.071658,-0.21084 0.048231,-0.10197 0.1212674,-0.18879 0.073036,-0.0868 0.1694987,-0.1502 0.097841,-0.0648 0.2191081,-0.1006 0.1226454,-0.0372 0.2700955,-0.0372 0.1281575,0 0.2315104,0.0179 0.1033528,0.0179 0.1777669,0.0413 l -0.062012,0.31557 q -0.07717,-0.0386 -0.1736328,-0.062 -0.096463,-0.0248 -0.1860352,-0.0248 -0.096463,0 -0.1708767,0.0289 -0.073036,0.0276 -0.1295356,0.0744 -0.055121,0.0469 -0.093707,0.10749 -0.037207,0.0606 -0.060634,0.1254 -0.023427,0.0648 -0.034451,0.12954 -0.00965,0.0634 -0.00965,0.11575 0,0.14056 0.082682,0.21222 0.082682,0.0717 0.2328884,0.0717 0.096463,0 0.1929254,-0.0221 0.096463,-0.0234 0.1860351,-0.0592 z"
         style="font-style:italic;font-variant:normal;font-weight:bold;font-stretch:normal;font-size:2.82222223px;font-family:Consolas;-inkscape-font-specification:'Consolas Bold Italic';fill:#ffffff;stroke-width:0.26458332"
         id="path1157"
         inkscape:connector-curvature="0" />
      <path
         d="m 4.8992575,123.0838 q -0.019292,0.0992 0.015159,0.14883 0.034451,0.0482 0.1254014,0.0482 0.1005968,0 0.214974,-0.0303 0.1143772,-0.0303 0.2659614,-0.0882 v 0.2632 q -0.1391819,0.0579 -0.2783637,0.0882 -0.1378039,0.0303 -0.2838759,0.0303 -0.250803,0 -0.3472656,-0.12402 -0.095085,-0.1254 -0.042719,-0.38999 l 0.2935221,-1.46485 h 0.3389974 z"
         style="font-style:italic;font-variant:normal;font-weight:bold;font-stretch:normal;font-size:2.82222223px;font-family:Consolas;-inkscape-font-specification:'Consolas Bold Italic';fill:#ffffff;stroke-width:0.26458332"
         id="path1159"
         inkscape:connector-curvature="0" />
      <path
         d="m 6.4536847,123.54406 q -0.1309136,0 -0.2356445,-0.0317 -0.1047309,-0.0331 -0.179145,-0.0978 -0.073036,-0.0661 -0.1129991,-0.16537 -0.039963,-0.10059 -0.039963,-0.23564 0,-0.11851 0.024805,-0.23289 0.026183,-0.11576 0.074414,-0.21911 0.049609,-0.10473 0.1198893,-0.19155 0.071658,-0.0882 0.1639866,-0.15158 0.093707,-0.0648 0.2053277,-0.1006 0.1129991,-0.0358 0.2439127,-0.0358 0.1295356,0 0.2342665,0.0331 0.106109,0.0317 0.179145,0.0978 0.074414,0.0648 0.1143772,0.16536 0.039963,0.0992 0.039963,0.23427 0,0.11851 -0.026183,0.23426 -0.024805,0.11438 -0.073036,0.21773 -0.048231,0.10336 -0.1198893,0.19155 -0.071658,0.0882 -0.1639866,0.15296 -0.092328,0.0634 -0.2053277,0.0992 -0.1129991,0.0358 -0.2439127,0.0358 z m 0.4795573,-0.89848 q 0,-0.13642 -0.067524,-0.20395 -0.066146,-0.0689 -0.1915473,-0.0689 -0.074414,0 -0.1350477,0.0289 -0.060634,0.0276 -0.1102431,0.0744 -0.048231,0.0469 -0.08406,0.10887 -0.035829,0.062 -0.059256,0.12953 -0.023427,0.0675 -0.035829,0.13643 -0.011024,0.0675 -0.011024,0.12816 0,0.13642 0.067524,0.20532 0.067524,0.0689 0.1929253,0.0689 0.074414,0 0.1350478,-0.0276 0.060634,-0.0289 0.108865,-0.0758 0.048231,-0.0482 0.08406,-0.10886 0.035829,-0.062 0.059256,-0.12954 0.023427,-0.0675 0.034451,-0.13642 0.012402,-0.0689 0.012402,-0.12954 z"
         style="font-style:italic;font-variant:normal;font-weight:bold;font-stretch:normal;font-size:2.82222223px;font-family:Consolas;-inkscape-font-specification:'Consolas Bold Italic';fill:#ffffff;stroke-width:0.26458332"
         id="path1161"
         inkscape:connector-curvature="0" />
      <path
         d="m 8.5868879,123.45036 q -0.053744,0.0207 -0.1129992,0.0372 -0.057878,0.0165 -0.1157552,0.0276 -0.057878,0.011 -0.1116211,0.0165 -0.053743,0.006 -0.097841,0.006 -0.3045464,0 -0.4630208,-0.13642 -0.1570964,-0.13643 -0.1570964,-0.40239 0,-0.11024 0.023427,-0.22049 0.024805,-0.11024 0.071658,-0.21084 0.048231,-0.10197 0.1212673,-0.18879 0.073036,-0.0868 0.1694987,-0.1502 0.097841,-0.0648 0.2191081,-0.1006 0.1226454,-0.0372 0.2700955,-0.0372 0.1281576,0 0.2315104,0.0179 0.1033529,0.0179 0.1777669,0.0413 l -0.062012,0.31557 q -0.07717,-0.0386 -0.1736328,-0.062 -0.096463,-0.0248 -0.1860351,-0.0248 -0.096463,0 -0.1708768,0.0289 -0.073036,0.0276 -0.1295356,0.0744 -0.055122,0.0469 -0.093707,0.10749 -0.037207,0.0606 -0.060634,0.1254 -0.023427,0.0648 -0.034451,0.12954 -0.00965,0.0634 -0.00965,0.11575 0,0.14056 0.082682,0.21222 0.082682,0.0717 0.2328885,0.0717 0.096463,0 0.1929253,-0.0221 0.096463,-0.0234 0.1860352,-0.0592 z"
         style="font-style:italic;font-variant:normal;font-weight:bold;font-stretch:normal;font-size:2.82222223px;font-family:Consolas;-inkscape-font-specification:'Consolas Bold Italic';fill:#ffffff;stroke-width:0.26458332"
         id="path1163"
         inkscape:connector-curvature="0" />
      <path
         d="m 9.8753537,123.51237 -0.396875,-0.70556 q 0.1612304,-0.0207 0.2700954,-0.051 0.1088651,-0.0303 0.1763889,-0.0689 0.067524,-0.0386 0.096463,-0.0868 0.02894,-0.0482 0.02894,-0.10611 0,-0.0813 -0.0441,-0.11438 -0.042719,-0.0331 -0.119889,-0.0331 -0.066146,0 -0.1391819,0.0482 -0.073036,0.0482 -0.1378038,0.12264 -0.06339,0.0744 -0.1102431,0.16537 -0.046853,0.091 -0.06339,0.17501 l -0.1295356,0.65457 h -0.33624 l 0.3886067,-1.94717 h 0.3362413 l -0.095085,0.47956 -0.099219,0.29076 q 0.037207,-0.0593 0.086816,-0.10611 0.050987,-0.0469 0.110243,-0.0799 0.060634,-0.0331 0.1281576,-0.0496 0.068902,-0.0179 0.1405599,-0.0179 0.092329,0 0.1694989,0.0248 0.07855,0.0234 0.135048,0.0703 0.0565,0.0455 0.08682,0.113 0.0317,0.0675 0.0317,0.15572 0,0.10335 -0.03445,0.18741 -0.03307,0.0827 -0.09508,0.14607 -0.06063,0.0634 -0.14745,0.10749 -0.08544,0.0441 -0.1915472,0.0703 l 0.3610462,0.55535 z"
         style="font-style:italic;font-variant:normal;font-weight:bold;font-stretch:normal;font-size:2.82222223px;font-family:Consolas;-inkscape-font-specification:'Consolas Bold Italic';fill:#ffffff;stroke-width:0.26458332"
         id="path1165"
         inkscape:connector-curvature="0" />
    </g>
    <g
       aria-label="output"
       style="font-style:italic;font-variant:normal;font-weight:bold;font-stretch:normal;font-size:2.82222223px;line-height:1.25;font-family:Consolas;-inkscape-font-specification:'Consolas Bold Italic';letter-spacing:0px;word-spacing:0px;display:inline;fill:#ffffff;fill-opacity:1;stroke:none;stroke-width:0.26458332"
       id="text1125"
       transform="translate(0,-2.6457404)">
      <path
         d="m 52.949772,123.4662 q -0.130913,0 -0.235644,-0.0317 -0.104731,-0.0331 -0.179145,-0.0978 -0.07304,-0.0661 -0.112999,-0.16537 -0.03996,-0.10059 -0.03996,-0.23564 0,-0.11851 0.0248,-0.23289 0.02618,-0.11575 0.07441,-0.21911 0.04961,-0.10473 0.11989,-0.19154 0.07166,-0.0882 0.163986,-0.15159 0.09371,-0.0648 0.205328,-0.1006 0.112999,-0.0358 0.243913,-0.0358 0.129535,0 0.234266,0.0331 0.106109,0.0317 0.179145,0.0978 0.07441,0.0648 0.114377,0.16536 0.03996,0.0992 0.03996,0.23427 0,0.11851 -0.02618,0.23427 -0.02481,0.11437 -0.07304,0.21773 -0.04823,0.10335 -0.11989,0.19154 -0.07166,0.0882 -0.163986,0.15297 -0.09233,0.0634 -0.205328,0.0992 -0.112999,0.0358 -0.243913,0.0358 z m 0.479558,-0.89848 q 0,-0.13642 -0.06752,-0.20395 -0.06615,-0.0689 -0.191547,-0.0689 -0.07441,0 -0.135048,0.0289 -0.06063,0.0276 -0.110243,0.0744 -0.04823,0.0469 -0.08406,0.10887 -0.03583,0.062 -0.05926,0.12954 -0.02343,0.0675 -0.03583,0.13642 -0.01102,0.0675 -0.01102,0.12816 0,0.13642 0.06752,0.20533 0.06752,0.0689 0.192926,0.0689 0.07441,0 0.135047,-0.0276 0.06063,-0.0289 0.108865,-0.0758 0.04823,-0.0482 0.08406,-0.10887 0.03583,-0.062 0.05926,-0.12954 0.02343,-0.0675 0.03445,-0.13642 0.0124,-0.0689 0.0124,-0.12954 z"
         style="font-style:italic;font-variant:normal;font-weight:bold;font-stretch:normal;font-size:2.82222223px;font-family:Consolas;-inkscape-font-specification:'Consolas Bold Italic';fill:#ffffff;stroke-width:0.26458332"
         id="path1144"
         inkscape:connector-curvature="0" />
      <path
         d="m 54.526248,122.03442 -0.183279,0.91226 q -0.02067,0.11438 0.0069,0.17639 0.02756,0.0606 0.09784,0.0606 0.06339,0 0.135048,-0.051 0.07166,-0.051 0.136426,-0.13091 0.06477,-0.0799 0.112999,-0.17777 0.04961,-0.0978 0.06752,-0.19155 l 0.118511,-0.59807 h 0.334863 l -0.148828,0.74828 q -0.0083,0.0441 -0.01654,0.0951 -0.0083,0.0496 -0.01792,0.12403 -0.0083,0.073 -0.01929,0.17776 -0.01103,0.10473 -0.02481,0.25494 h -0.27423 l 0.01103,-0.25356 q -0.03169,0.0482 -0.07993,0.0992 -0.04823,0.0496 -0.112999,0.091 -0.06339,0.0413 -0.141938,0.0675 -0.07717,0.0276 -0.16812,0.0276 -0.111621,0 -0.19017,-0.0372 -0.07717,-0.0372 -0.122645,-0.10473 -0.0441,-0.0689 -0.05512,-0.16537 -0.0096,-0.0978 0.01516,-0.21773 l 0.184657,-0.90675 z"
         style="font-style:italic;font-variant:normal;font-weight:bold;font-stretch:normal;font-size:2.82222223px;font-family:Consolas;-inkscape-font-specification:'Consolas Bold Italic';fill:#ffffff;stroke-width:0.26458332"
         id="path1146"
         inkscape:connector-curvature="0" />
      <path
         d="m 56.651183,123.41522 q -0.09508,0.0234 -0.190169,0.0372 -0.09371,0.0138 -0.176389,0.0138 -0.137804,0 -0.237023,-0.0303 -0.09784,-0.0303 -0.155718,-0.0965 -0.05788,-0.0661 -0.07304,-0.17225 -0.01378,-0.10611 0.01654,-0.25769 l 0.124023,-0.61323 h -0.374826 l 0.05099,-0.26183 h 0.374826 l 0.07304,-0.35829 0.362425,-0.0896 -0.09095,0.44786 h 0.544325 l -0.05099,0.26183 h -0.544325 l -0.124024,0.61598 q -0.01378,0.0703 -0.01378,0.12403 0.0014,0.0524 0.02067,0.0854 0.02067,0.0331 0.06063,0.0524 0.03996,0.0179 0.104731,0.0179 0.07717,0 0.152962,-0.0138 0.07579,-0.0138 0.146072,-0.0303 z"
         style="font-style:italic;font-variant:normal;font-weight:bold;font-stretch:normal;font-size:2.82222223px;font-family:Consolas;-inkscape-font-specification:'Consolas Bold Italic';fill:#ffffff;stroke-width:0.26458332"
         id="path1148"
         inkscape:connector-curvature="0" />
      <path
         d="m 57.599274,123.45931 q -0.07442,0 -0.13367,-0.007 -0.05788,-0.007 -0.100597,-0.0152 l -0.0055,0.0248 -0.104731,0.51952 h -0.336241 l 0.260449,-1.29536 q 0.0083,-0.0427 0.01516,-0.0937 0.0083,-0.051 0.01654,-0.12403 0.0096,-0.0744 0.02067,-0.17914 0.01102,-0.10473 0.02618,-0.25494 h 0.27423 l -0.0124,0.25494 q 0.03169,-0.0482 0.07993,-0.0978 0.04961,-0.051 0.112999,-0.0923 0.06477,-0.0413 0.141938,-0.0675 0.07855,-0.0276 0.16812,-0.0276 0.205328,0 0.310059,0.12678 0.104731,0.12677 0.104731,0.35829 0,0.21221 -0.0565,0.38998 -0.0565,0.17777 -0.163986,0.3073 -0.107487,0.12816 -0.263206,0.2012 -0.155718,0.0717 -0.354155,0.0717 z m 0.487825,-0.94809 q 0,-0.11024 -0.03859,-0.16812 -0.03721,-0.0579 -0.114377,-0.0579 -0.04134,0 -0.08819,0.0234 -0.04685,0.0234 -0.09371,0.0648 -0.04548,0.04 -0.08957,0.0951 -0.04272,0.0537 -0.07855,0.11576 -0.03583,0.0606 -0.06201,0.1254 -0.02618,0.0648 -0.03859,0.12678 l -0.06477,0.32935 q 0.02894,0.011 0.07855,0.022 0.05099,0.01 0.110243,0.01 0.09784,0 0.170877,-0.0345 0.07441,-0.0358 0.128157,-0.0923 0.05374,-0.0579 0.08819,-0.13092 0.03445,-0.073 0.05512,-0.14882 0.02067,-0.0758 0.02894,-0.14883 0.0083,-0.073 0.0083,-0.13092 z"
         style="font-style:italic;font-variant:normal;font-weight:bold;font-stretch:normal;font-size:2.82222223px;font-family:Consolas;-inkscape-font-specification:'Consolas Bold Italic';fill:#ffffff;stroke-width:0.26458332"
         id="path1150"
         inkscape:connector-curvature="0" />
      <path
         d="m 59.18953,122.03442 -0.183279,0.91226 q -0.02067,0.11438 0.0069,0.17639 0.02756,0.0606 0.09784,0.0606 0.06339,0 0.135048,-0.051 0.07166,-0.051 0.136426,-0.13091 0.06477,-0.0799 0.112999,-0.17777 0.04961,-0.0978 0.06752,-0.19155 l 0.118511,-0.59807 h 0.334864 l -0.148829,0.74828 q -0.0083,0.0441 -0.01654,0.0951 -0.0083,0.0496 -0.01791,0.12403 -0.0083,0.073 -0.01929,0.17776 -0.01102,0.10473 -0.02481,0.25494 h -0.274229 l 0.01102,-0.25356 q -0.03169,0.0482 -0.07993,0.0992 -0.04823,0.0496 -0.112999,0.091 -0.06339,0.0413 -0.141938,0.0675 -0.07717,0.0276 -0.168121,0.0276 -0.111621,0 -0.190169,-0.0372 -0.07717,-0.0372 -0.122646,-0.10473 -0.0441,-0.0689 -0.05512,-0.16537 -0.0096,-0.0978 0.01516,-0.21773 l 0.184657,-0.90675 z"
         style="font-style:italic;font-variant:normal;font-weight:bold;font-stretch:normal;font-size:2.82222223px;font-family:Consolas;-inkscape-font-specification:'Consolas Bold Italic';fill:#ffffff;stroke-width:0.26458332"
         id="path1152"
         inkscape:connector-curvature="0" />
      <path
         d="m 61.314465,123.41522 q -0.09508,0.0234 -0.19017,0.0372 -0.09371,0.0138 -0.176389,0.0138 -0.137803,0 -0.237022,-0.0303 -0.09784,-0.0303 -0.155718,-0.0965 -0.05788,-0.0661 -0.07304,-0.17225 -0.01378,-0.10611 0.01654,-0.25769 l 0.124023,-0.61323 h -0.374826 l 0.05099,-0.26183 h 0.374827 l 0.07304,-0.35829 0.362424,-0.0896 -0.09095,0.44786 h 0.544326 l -0.05099,0.26183 h -0.544325 l -0.124023,0.61598 q -0.01378,0.0703 -0.01378,0.12403 0.0014,0.0524 0.02067,0.0854 0.02067,0.0331 0.06063,0.0524 0.03996,0.0179 0.104731,0.0179 0.07717,0 0.152963,-0.0138 0.07579,-0.0138 0.146072,-0.0303 z"
         style="font-style:italic;font-variant:normal;font-weight:bold;font-stretch:normal;font-size:2.82222223px;font-family:Consolas;-inkscape-font-specification:'Consolas Bold Italic';fill:#ffffff;stroke-width:0.26458332"
         id="path1154"
         inkscape:connector-curvature="0" />
    </g>
    <g
       aria-label="reset"
       style="font-style:italic;font-variant:normal;font-weight:bold;font-stretch:normal;font-size:2.82222223px;line-height:1.25;font-family:Consolas;-inkscape-font-specification:'Consolas Bold Italic';letter-spacing:0px;word-spacing:0px;display:inline;fill:#ffffff;fill-opacity:1;stroke:none;stroke-width:0.26458332"
       id="text1129"
       transform="translate(0,-2.6458204)">
      <path
         d="m 29.404073,122.83644 q 0.01929,-0.0841 0.02067,-0.14056 0.0014,-0.0565 -0.01378,-0.0896 -0.01516,-0.0345 -0.04685,-0.0482 -0.03032,-0.0152 -0.07579,-0.0152 -0.06614,0 -0.136425,0.0551 -0.0689,0.0537 -0.132292,0.14331 -0.06201,0.0882 -0.111621,0.20395 -0.04961,0.11438 -0.07441,0.23565 l -0.100597,0.51125 h -0.344509 l 0.148828,-0.74828 q 0.0083,-0.0427 0.01654,-0.0937 0.0083,-0.051 0.01654,-0.12403 0.0096,-0.0744 0.02067,-0.17914 0.01102,-0.10473 0.02618,-0.25494 h 0.272851 l -0.01378,0.27423 q 0.03032,-0.0551 0.07717,-0.10886 0.04823,-0.0551 0.110243,-0.0978 0.06201,-0.0441 0.139182,-0.0703 0.07855,-0.0276 0.170877,-0.0276 0.119889,0 0.203949,0.0386 0.08544,0.0386 0.132292,0.11162 0.04685,0.073 0.05512,0.18053 0.0096,0.1061 -0.02205,0.24391 z"
         style="font-style:italic;font-variant:normal;font-weight:bold;font-stretch:normal;font-size:2.82222223px;font-family:Consolas;-inkscape-font-specification:'Consolas Bold Italic';fill:#ffffff;stroke-width:0.26458332"
         id="path1133"
         inkscape:connector-curvature="0" />
      <path
         d="m 30.292907,123.10791 q -0.0028,0.0165 -0.0041,0.0386 -0.0014,0.0207 -0.0014,0.0468 0,0.1254 0.07855,0.1943 0.07993,0.0675 0.234267,0.0675 0.103353,0 0.221864,-0.0152 0.118511,-0.0165 0.227376,-0.0469 v 0.26182 q -0.115755,0.0303 -0.249425,0.0496 -0.132291,0.0193 -0.264583,0.0193 -0.135048,0 -0.242535,-0.0331 -0.107487,-0.0331 -0.181901,-0.0978 -0.07441,-0.0648 -0.114377,-0.16261 -0.03996,-0.0978 -0.03996,-0.22875 0,-0.19017 0.05788,-0.36105 0.05926,-0.17087 0.165364,-0.29903 0.107487,-0.12954 0.257693,-0.20395 0.150207,-0.0758 0.334864,-0.0758 0.119889,0 0.212218,0.0276 0.09371,0.0276 0.157096,0.0772 0.06477,0.0496 0.09784,0.11989 0.03445,0.0689 0.03445,0.15296 0,0.10611 -0.04272,0.19292 -0.04272,0.0854 -0.137803,0.14745 -0.09508,0.0606 -0.248047,0.0951 -0.151585,0.0331 -0.369315,0.0331 z m 0.199816,-0.23978 q 0.144694,0 0.232888,-0.0165 0.08819,-0.0165 0.136426,-0.0427 0.04961,-0.0276 0.06615,-0.0634 0.01654,-0.0358 0.01654,-0.0744 0,-0.073 -0.0565,-0.11575 -0.0565,-0.0427 -0.150206,-0.0427 -0.07579,0 -0.139182,0.0289 -0.06339,0.0276 -0.112999,0.0758 -0.04823,0.0482 -0.08406,0.113 -0.03445,0.0648 -0.05512,0.1378 z"
         style="font-style:italic;font-variant:normal;font-weight:bold;font-stretch:normal;font-size:2.82222223px;font-family:Consolas;-inkscape-font-specification:'Consolas Bold Italic';fill:#ffffff;stroke-width:0.26458332"
         id="path1135"
         inkscape:connector-curvature="0" />
      <path
         d="m 31.497313,123.36698 q 0.14056,0.0496 0.268717,0.0744 0.128158,0.0248 0.238401,0.0248 0.16123,0 0.234266,-0.051 0.07441,-0.051 0.07441,-0.12953 0,-0.0276 -0.01102,-0.0496 -0.01102,-0.0234 -0.03996,-0.0441 -0.02894,-0.0207 -0.07993,-0.0413 -0.04961,-0.0207 -0.129536,-0.0455 -0.192925,-0.0593 -0.289388,-0.15986 -0.09646,-0.10059 -0.09646,-0.25493 0,-0.0882 0.0441,-0.16537 0.0441,-0.0786 0.128157,-0.13642 0.08544,-0.0593 0.21084,-0.0923 0.125402,-0.0345 0.28801,-0.0345 0.137804,0 0.235645,0.0124 0.09784,0.011 0.170876,0.0262 v 0.27423 q -0.133669,-0.04 -0.235644,-0.0524 -0.101975,-0.0124 -0.184657,-0.0124 -0.08544,0 -0.143316,0.0152 -0.05788,0.0138 -0.09233,0.04 -0.03445,0.0262 -0.04961,0.0551 -0.01378,0.0276 -0.01378,0.0537 0,0.0317 0.0124,0.0565 0.0124,0.0248 0.0441,0.0469 0.03169,0.022 0.08544,0.0441 0.05374,0.022 0.135048,0.0468 0.187413,0.0593 0.28112,0.15159 0.09371,0.0923 0.09371,0.22875 0,0.12265 -0.05237,0.21222 -0.05236,0.0882 -0.143316,0.14745 -0.09095,0.0593 -0.213596,0.0868 -0.122645,0.0289 -0.263205,0.0289 -0.158475,0 -0.283876,-0.0151 -0.124023,-0.0138 -0.223242,-0.0386 z"
         style="font-style:italic;font-variant:normal;font-weight:bold;font-stretch:normal;font-size:2.82222223px;font-family:Consolas;-inkscape-font-specification:'Consolas Bold Italic';fill:#ffffff;stroke-width:0.26458332"
         id="path1137"
         inkscape:connector-curvature="0" />
      <path
         d="m 33.401762,123.10791 q -0.0028,0.0165 -0.0041,0.0386 -0.0014,0.0207 -0.0014,0.0468 0,0.1254 0.07855,0.1943 0.07993,0.0675 0.234266,0.0675 0.103353,0 0.221864,-0.0152 0.118512,-0.0165 0.227377,-0.0469 v 0.26182 q -0.115756,0.0303 -0.249425,0.0496 -0.132292,0.0193 -0.264584,0.0193 -0.135047,0 -0.242534,-0.0331 -0.107487,-0.0331 -0.181901,-0.0978 -0.07441,-0.0648 -0.114378,-0.16261 -0.03996,-0.0978 -0.03996,-0.22875 0,-0.19017 0.05788,-0.36105 0.05926,-0.17087 0.165365,-0.29903 0.107486,-0.12954 0.257693,-0.20395 0.150206,-0.0758 0.334863,-0.0758 0.119889,0 0.212218,0.0276 0.09371,0.0276 0.157096,0.0772 0.06477,0.0496 0.09784,0.11989 0.03445,0.0689 0.03445,0.15296 0,0.10611 -0.04272,0.19292 -0.04272,0.0854 -0.137804,0.14745 -0.09508,0.0606 -0.248047,0.0951 -0.151584,0.0331 -0.369314,0.0331 z m 0.199815,-0.23978 q 0.144694,0 0.232889,-0.0165 0.08819,-0.0165 0.136425,-0.0427 0.04961,-0.0276 0.06615,-0.0634 0.01654,-0.0358 0.01654,-0.0744 0,-0.073 -0.0565,-0.11575 -0.0565,-0.0427 -0.150206,-0.0427 -0.07579,0 -0.139182,0.0289 -0.06339,0.0276 -0.112999,0.0758 -0.04823,0.0482 -0.08406,0.113 -0.03445,0.0648 -0.05512,0.1378 z"
         style="font-style:italic;font-variant:normal;font-weight:bold;font-stretch:normal;font-size:2.82222223px;font-family:Consolas;-inkscape-font-specification:'Consolas Bold Italic';fill:#ffffff;stroke-width:0.26458332"
         id="path1139"
         inkscape:connector-curvature="0" />
      <path
         d="m 35.73478,123.67291 q -0.09508,0.0234 -0.190169,0.0372 -0.09371,0.0138 -0.176389,0.0138 -0.137804,0 -0.237022,-0.0303 -0.09784,-0.0303 -0.155719,-0.0965 -0.05788,-0.0662 -0.07304,-0.17226 -0.01378,-0.10611 0.01654,-0.25769 l 0.124023,-0.61323 h -0.374826 l 0.05099,-0.26183 h 0.374827 l 0.07304,-0.35829 0.362424,-0.0896 -0.09095,0.44786 h 0.544325 l -0.05099,0.26183 h -0.544325 l -0.124024,0.61598 q -0.01378,0.0703 -0.01378,0.12403 0.0014,0.0524 0.02067,0.0854 0.02067,0.0331 0.06063,0.0524 0.03996,0.0179 0.104731,0.0179 0.07717,0 0.152962,-0.0138 0.07579,-0.0138 0.146072,-0.0303 z"
         style="font-style:italic;font-variant:normal;font-weight:bold;font-stretch:normal;font-size:2.82222223px;font-family:Consolas;-inkscape-font-specification:'Consolas Bold Italic';fill:#ffffff;stroke-width:0.26458332"
         id="path1141"
         inkscape:connector-curvature="0" />
    </g>
  </g>
  <g
     inkscape:groupmode="layer"
     id="layer5"
     inkscape:label="serigrafia"
     style="display:inline"
     transform="translate(0,6.6726685e-6)"
     sodipodi:insensitive="true">
    <rect
       style="display:inline;opacity:1;vector-effect:none;fill:none;fill-opacity:0.50196078;fill-rule:evenodd;stroke:#ff0000;stroke-width:0.31900001;stroke-linecap:round;stroke-linejoin:miter;stroke-miterlimit:4;stroke-dasharray:none;stroke-dashoffset:0;stroke-opacity:1;paint-order:normal"
       id="rect33077-8"
       width="74.482582"
       height="98.755379"
       x="3.3984332"
       y="14.8366"
       rx="0.2"
       ry="0.2" />
  </g>
  <g
     inkscape:groupmode="layer"
     id="layer3"
     inkscape:label="widgets"
     style="display:none"
     transform="translate(0,6.6726685e-6)"
     sodipodi:insensitive="true">
    <rect
       style="opacity:1;vector-effect:none;fill:#ffff00;fill-opacity:0.50196078;fill-rule:evenodd;stroke:none;stroke-width:0.3141861;stroke-linecap:round;stroke-linejoin:miter;stroke-miterlimit:4;stroke-dasharray:none;stroke-dashoffset:0;stroke-opacity:1;paint-order:normal"
       id="rect33077"
       width="74.480209"
       height="98.217705"
       x="3.399621"
       y="14.837339" />
    <g
       style="display:inline;enable-background:new"
       inkscape:label="Layer 1"
       id="g1971"
       transform="translate(-77.728902,-3.2381315)">
      <path
         inkscape:connector-curvature="0"
         style="fill:#ffffff;fill-opacity:1;fill-rule:nonzero;stroke:#cccccc;stroke-width:0.56692916;stroke-miterlimit:4;stroke-dasharray:none;stroke-opacity:1"
         d="m 15.791016,0.47265625 c -8.447921,0 -15.31835975,6.87051055 -15.31835975,15.31835975 0,8.448 6.87043875,15.316406 15.31835975,15.316406 8.447909,0 15.316406,-6.868406 15.316406,-15.316406 0,-8.4478492 -6.868497,-15.31835975 -15.316406,-15.31835975 z m 0,4.28710935 c 6.083334,0 11.03125,4.9479492 11.03125,11.0312504 0,6.083338 -4.947916,11.03125 -11.03125,11.03125 -6.0833314,0 -11.0312504,-4.947912 -11.0312504,-11.03125 0,-6.0833012 4.947919,-11.0312504 11.0312504,-11.0312504 z"
         transform="matrix(0.26458333,0,0,0.26458333,88.611154,119.19859)"
         id="path1967" />
      <path
         inkscape:connector-curvature="0"
         id="path1969"
         d="m 94.588681,123.3764 c 0,0.99357 -0.806153,1.79974 -1.799717,1.79974 -0.993567,0 -1.79972,-0.80617 -1.79972,-1.79974 0,-0.99356 0.806153,-1.79969 1.79972,-1.79969 0.993564,0 1.799717,0.80613 1.799717,1.79969"
         style="fill:#000000;fill-opacity:1;fill-rule:nonzero;stroke:none;stroke-width:0.35277775" />
    </g>
    <g
       transform="translate(-52.149217,-3.2381315)"
       id="g919"
       inkscape:label="Layer 1"
       style="display:inline;enable-background:new">
      <path
         id="path914"
         transform="matrix(0.26458333,0,0,0.26458333,88.611154,119.19859)"
         d="m 15.791016,0.47265625 c -8.447921,0 -15.31835975,6.87051055 -15.31835975,15.31835975 0,8.448 6.87043875,15.316406 15.31835975,15.316406 8.447909,0 15.316406,-6.868406 15.316406,-15.316406 0,-8.4478492 -6.868497,-15.31835975 -15.316406,-15.31835975 z m 0,4.28710935 c 6.083334,0 11.03125,4.9479492 11.03125,11.0312504 0,6.083338 -4.947916,11.03125 -11.03125,11.03125 -6.0833314,0 -11.0312504,-4.947912 -11.0312504,-11.03125 0,-6.0833012 4.947919,-11.0312504 11.0312504,-11.0312504 z"
         style="fill:#ffffff;fill-opacity:1;fill-rule:nonzero;stroke:#cccccc;stroke-width:0.56692916;stroke-miterlimit:4;stroke-dasharray:none;stroke-opacity:1"
         inkscape:connector-curvature="0" />
      <path
         style="fill:#000000;fill-opacity:1;fill-rule:nonzero;stroke:none;stroke-width:0.35277775"
         d="m 94.588681,123.3764 c 0,0.99357 -0.806153,1.79974 -1.799717,1.79974 -0.993567,0 -1.79972,-0.80617 -1.79972,-1.79974 0,-0.99356 0.806153,-1.79969 1.79972,-1.79969 0.993564,0 1.799717,0.80613 1.799717,1.79969"
         id="path916"
         inkscape:connector-curvature="0" />
    </g>
    <g
       style="display:inline;enable-background:new"
       inkscape:label="Layer 1"
       id="g939"
       transform="translate(-26.569534,-3.2381315)">
      <path
         inkscape:connector-curvature="0"
         style="fill:#ffffff;fill-opacity:1;fill-rule:nonzero;stroke:#cccccc;stroke-width:0.56692916;stroke-miterlimit:4;stroke-dasharray:none;stroke-opacity:1"
         d="m 15.791016,0.47265625 c -8.447921,0 -15.31835975,6.87051055 -15.31835975,15.31835975 0,8.448 6.87043875,15.316406 15.31835975,15.316406 8.447909,0 15.316406,-6.868406 15.316406,-15.316406 0,-8.4478492 -6.868497,-15.31835975 -15.316406,-15.31835975 z m 0,4.28710935 c 6.083334,0 11.03125,4.9479492 11.03125,11.0312504 0,6.083338 -4.947916,11.03125 -11.03125,11.03125 -6.0833314,0 -11.0312504,-4.947912 -11.0312504,-11.03125 0,-6.0833012 4.947919,-11.0312504 11.0312504,-11.0312504 z"
         transform="matrix(0.26458333,0,0,0.26458333,88.611154,119.19859)"
         id="path935" />
      <path
         inkscape:connector-curvature="0"
         id="path937"
         d="m 94.588681,123.3764 c 0,0.99357 -0.806153,1.79974 -1.799717,1.79974 -0.993567,0 -1.79972,-0.80617 -1.79972,-1.79974 0,-0.99356 0.806153,-1.79969 1.79972,-1.79969 0.993564,0 1.799717,0.80613 1.799717,1.79969"
         style="fill:#000000;fill-opacity:1;fill-rule:nonzero;stroke:none;stroke-width:0.35277775" />
    </g>
  </g>
</svg>
