<?xml version="1.0" encoding="UTF-8" standalone="no"?>
<!-- Created with Inkscape (http://www.inkscape.org/) -->

<svg
   xmlns:dc="http://purl.org/dc/elements/1.1/"
   xmlns:cc="http://creativecommons.org/ns#"
   xmlns:rdf="http://www.w3.org/1999/02/22-rdf-syntax-ns#"
   xmlns:svg="http://www.w3.org/2000/svg"
   xmlns="http://www.w3.org/2000/svg"
   xmlns:sodipodi="http://sodipodi.sourceforge.net/DTD/sodipodi-0.dtd"
   xmlns:inkscape="http://www.inkscape.org/namespaces/inkscape"
   width="1.6in"
   height="5.0517035in"
   viewBox="0 0 40.640002 128.31326"
   version="1.1"
   id="svg30767"
   inkscape:version="0.92.4 (5da689c313, 2019-01-14)"
   sodipodi:docname="empty.svg">
  <defs
     id="defs30761" />
  <sodipodi:namedview
     id="base"
     pagecolor="#ffffff"
     bordercolor="#666666"
     borderopacity="1.0"
     inkscape:pageopacity="0.0"
     inkscape:pageshadow="2"
     inkscape:zoom="1.4"
     inkscape:cx="38.424916"
     inkscape:cy="210.63443"
     inkscape:document-units="mm"
     inkscape:current-layer="layer3"
     showgrid="false"
     fit-margin-top="0"
     fit-margin-left="0"
     fit-margin-right="0"
     fit-margin-bottom="0"
     inkscape:window-width="1016"
     inkscape:window-height="1048"
     inkscape:window-x="98"
     inkscape:window-y="0"
     inkscape:window-maximized="0"
     inkscape:snap-bbox="true"
     inkscape:bbox-nodes="true"
     units="in" />
  <metadata
     id="metadata30764">
    <rdf:RDF>
      <cc:Work
         rdf:about="">
        <dc:format>image/svg+xml</dc:format>
        <dc:type
           rdf:resource="http://purl.org/dc/dcmitype/StillImage" />
        <dc:title />
      </cc:Work>
    </rdf:RDF>
  </metadata>
  <g
     inkscape:label="sfondone"
     inkscape:groupmode="layer"
     id="layer1"
     transform="translate(-30.649472,-53.013299)"
     style="display:inline"
     sodipodi:insensitive="true">
    <path
       inkscape:connector-curvature="0"
       id="path3835"
       d="m 30.649472,53.013299 h 40.64 V 181.32657 h -40.64 z m 0,0"
       style="fill:#333333;fill-opacity:1;fill-rule:nonzero;stroke:none;stroke-width:0.24973837" />
  </g>
  <g
     inkscape:groupmode="layer"
     id="layer2"
     inkscape:label="logo"
     style="display:inline"
     sodipodi:insensitive="true">
    <g
       style="display:inline"
       id="g1083"
       transform="translate(0,2.0769007)">
      <g
         transform="matrix(0.1875,0,0,0.1875,0.45130608,76.93396)"
         id="g922"
         style="clip-rule:evenodd;fill-rule:evenodd;image-rendering:optimizeQuality;shape-rendering:geometricPrecision;text-rendering:geometricPrecision">
        <rect
           id="_196666080"
           class="fil0 str0"
           transform="rotate(-45)"
           width="30.330647"
           height="137.03459"
           x="-39.018856"
           y="105.19479"
           style="fill:#000000;stroke:none;stroke-width:0.20094904" />
        <rect
           id="_196664592"
           class="fil2 str1"
           transform="rotate(-135)"
           width="30.330647"
           height="137.03459"
           x="-188.87741"
           y="-92.370834"
           style="fill:#da251d;stroke:none;stroke-width:0.20094904" />
      </g>
      <g
         transform="matrix(0.1875,0,0,0.1875,0.45130608,76.93396)"
         id="g918"
         style="clip-rule:evenodd;fill-rule:evenodd;image-rendering:optimizeQuality;shape-rendering:geometricPrecision;text-rendering:geometricPrecision">
        <circle
           style="fill:none;stroke:#000000;stroke-width:17.19791603;stroke-miterlimit:4;stroke-dasharray:none"
           r="81.848534"
           cy="139.7"
           cx="105.966"
           class="fil0 str0"
           id="_196670520" />
        <rect
           style="opacity:1;fill:#000000;stroke:none;stroke-width:0;stroke-miterlimit:4;stroke-dasharray:none"
           id="rect875"
           width="40.832603"
           height="14.20678"
           x="85.549797"
           y="39.243301" />
        <rect
           y="225.94951"
           x="85.549797"
           height="14.20678"
           width="40.832603"
           id="rect881"
           style="opacity:1;fill:#000000;stroke:none;stroke-width:0;stroke-miterlimit:4;stroke-dasharray:none" />
        <rect
           y="-206.423"
           x="119.28303"
           height="14.20678"
           width="40.832603"
           id="rect885"
           style="opacity:1;fill:#000000;stroke:none;stroke-width:0;stroke-miterlimit:4;stroke-dasharray:none"
           transform="rotate(90)" />
        <rect
           transform="rotate(90)"
           style="opacity:1;fill:#000000;stroke:none;stroke-width:0;stroke-miterlimit:4;stroke-dasharray:none"
           id="rect889"
           width="40.832603"
           height="14.20678"
           x="119.28302"
           y="-19.716515" />
        <rect
           transform="rotate(135)"
           style="opacity:1;fill:#000000;stroke:none;stroke-width:0;stroke-miterlimit:4;stroke-dasharray:none"
           id="rect893"
           width="40.832603"
           height="14.20678"
           x="3.4366226"
           y="-274.16934" />
        <rect
           y="-87.462669"
           x="3.4366229"
           height="14.20678"
           width="40.832603"
           id="rect895"
           style="opacity:1;fill:#000000;stroke:none;stroke-width:0;stroke-miterlimit:4;stroke-dasharray:none"
           transform="rotate(135)" />
        <rect
           transform="rotate(-135)"
           style="opacity:1;fill:#000000;stroke:none;stroke-width:0;stroke-miterlimit:4;stroke-dasharray:none"
           id="rect897"
           width="40.832603"
           height="14.20678"
           x="-195.53125"
           y="63.799263" />
        <rect
           y="-122.90741"
           x="-195.53117"
           height="14.20678"
           width="40.832603"
           id="rect899"
           style="opacity:1;fill:#000000;stroke:none;stroke-width:0;stroke-miterlimit:4;stroke-dasharray:none"
           transform="rotate(-135)" />
      </g>
      <polygon
         transform="matrix(0.1875,0,0,0.1875,0.15024575,76.93396)"
         id="_196665264"
         class="fil2 str0"
         points="200.556,75.7262 207.953,75.7262 189.431,50.734 171.116,75.7262 178.83,75.7262 178.747,101.794 200.556,101.754 "
         style="clip-rule:evenodd;fill:#da251d;fill-rule:evenodd;stroke:#000000;stroke-width:0.0762;image-rendering:optimizeQuality;shape-rendering:geometricPrecision;text-rendering:geometricPrecision" />
      <polygon
         transform="matrix(0.1875,0,0,0.1875,0.15024575,76.93396)"
         id="_196665048"
         class="fil0 str2"
         points="171.116,202.598 178.83,202.598 178.747,228.666 200.556,228.625 200.556,202.598 207.953,202.598 189.431,177.606 "
         style="clip-rule:evenodd;fill:#000000;fill-rule:evenodd;stroke:#ffffff;stroke-width:0.0762;image-rendering:optimizeQuality;shape-rendering:geometricPrecision;text-rendering:geometricPrecision" />
      <polygon
         transform="matrix(0.1875,0,0,0.1875,0.15024575,76.93396)"
         id="_196666392"
         class="fil1 str1"
         points="178.747,165.23 200.556,165.189 200.556,139.162 207.953,139.162 189.431,114.17 171.116,139.162 178.83,139.162 "
         style="clip-rule:evenodd;fill:#ffffff;fill-rule:evenodd;stroke:#ff0000;stroke-width:0.0762;image-rendering:optimizeQuality;shape-rendering:geometricPrecision;text-rendering:geometricPrecision" />
    </g>
  </g>
  <g
     inkscape:groupmode="layer"
     id="layer4"
     inkscape:label="serigrafia"
     style="display:none">
    <g
       aria-label="force the hand of chance"
       style="font-style:italic;font-variant:normal;font-weight:bold;font-stretch:normal;font-size:3.52777767px;line-height:1.25;font-family:Consolas;-inkscape-font-specification:'Consolas Bold Italic';letter-spacing:0px;word-spacing:0px;display:inline;opacity:1;fill:#4d4d4d;fill-opacity:1;stroke:none;stroke-width:0.26458332;enable-background:new"
       id="text10419-1"
       transform="translate(-47.628167,69.61717)">
      <path
         d="m 73.621613,36.197305 q -0.138359,-0.04726 -0.234057,-0.112576 -0.09706,-0.06549 -0.153486,-0.154859 -0.05797,-0.08818 -0.0763,-0.203144 -0.01851,-0.113598 4.12e-4,-0.25844 0.0036,-0.02733 0.0099,-0.06541 0.0064,-0.03808 0.01267,-0.06505 l 0.199965,0.06504 q -0.01641,0.06178 -0.02355,0.116441 -0.02124,0.162605 0.04943,0.270511 0.07068,0.107906 0.246403,0.166999 l 0.972613,0.331368 0.05766,-0.441356 0.192954,0.06551 -0.05766,0.441355 0.220935,0.07473 q 0.264778,0.09018 0.382078,0.26672 0.1173,0.176537 0.07999,0.46212 -0.0095,0.07242 -0.02891,0.157434 -0.01963,0.08638 -0.04709,0.168956 l -0.196697,-0.06878 q 0.02794,-0.07557 0.04786,-0.153569 0.01974,-0.07664 0.02992,-0.154522 0.02124,-0.162605 -0.05353,-0.271047 -0.07478,-0.108442 -0.245036,-0.16682 l -0.220935,-0.07473 -0.07873,0.602594 -0.192954,-0.06551 0.07855,-0.601227 z m 1.48093,-0.463865 z"
         style="font-style:italic;font-variant:normal;font-weight:normal;font-stretch:normal;font-size:2.82222223px;line-height:0;font-family:Consolas;-inkscape-font-specification:'Consolas Italic';word-spacing:-0.13493749px;fill:#4d4d4d;stroke-width:0.26458332"
         id="path2756"
         inkscape:connector-curvature="0" />
      <path
         d="m 73.261215,37.681538 q 0.09496,-0.229151 0.265362,-0.309196 0.171149,-0.07824 0.406665,0.01935 0.105664,0.04379 0.199814,0.108159 0.0949,0.06617 0.171165,0.148497 0.07754,0.08285 0.132642,0.180266 0.0551,0.09742 0.08064,0.204959 0.02554,0.107544 0.01749,0.220559 -0.0073,0.114816 -0.05584,0.231937 -0.04748,0.114576 -0.114961,0.191029 -0.06674,0.07825 -0.151892,0.114566 -0.08441,0.03811 -0.187241,0.03428 -0.101557,-0.0033 -0.218679,-0.05183 -0.104391,-0.04326 -0.199286,-0.109433 -0.09415,-0.06437 -0.171693,-0.147223 -0.07627,-0.08232 -0.131368,-0.179739 -0.0551,-0.09742 -0.08064,-0.204959 -0.02607,-0.106271 -0.01877,-0.221086 0.0086,-0.114288 0.05658,-0.230137 z m 0.616161,0.856476 q 0.154041,0.06383 0.260494,0.02292 0.106454,-0.04091 0.163957,-0.179675 0.03271,-0.07893 0.03266,-0.158008 0.0012,-0.07855 -0.02447,-0.153339 -0.02495,-0.07299 -0.07119,-0.141376 -0.0455,-0.06659 -0.105184,-0.124138 -0.05894,-0.05575 -0.129521,-0.101405 -0.06931,-0.04513 -0.140599,-0.07467 -0.15404,-0.06383 -0.261767,-0.02345 -0.106454,0.04091 -0.163956,0.179675 -0.03324,0.0802 -0.03393,0.157481 4.8e-5,0.07908 0.02499,0.152066 0.02569,0.07479 0.07119,0.141376 0.04624,0.06839 0.106457,0.124665 0.05969,0.05755 0.128993,0.102679 0.07058,0.04566 0.141872,0.0752 z"
         style="font-style:italic;font-variant:normal;font-weight:normal;font-stretch:normal;font-size:2.82222223px;line-height:0;font-family:Consolas;-inkscape-font-specification:'Consolas Italic';word-spacing:-0.13493749px;fill:#4d4d4d;stroke-width:0.26458332"
         id="path2758"
         inkscape:connector-curvature="0" />
      <path
         d="m 73.347087,39.229666 q 0.01741,0.02032 0.04793,0.05071 0.02969,0.03148 0.08149,0.08168 0.05289,0.05104 0.131684,0.127179 0.07988,0.07698 0.196599,0.187451 l -0.137642,0.179249 -0.232589,-0.222037 q 0.02637,0.08106 0.04114,0.163637 0.01587,0.08342 0.0119,0.16551 -0.004,0.08209 -0.03078,0.16227 -0.02682,0.08018 -0.08473,0.155594 -0.138481,0.180341 -0.303932,0.162754 -0.165451,-0.01759 -0.342493,-0.228246 L 72.87422,40.02196 q 0.06283,0.07431 0.115289,0.11459 0.05246,0.04029 0.09591,0.04932 0.0437,0.01097 0.08057,-0.0076 0.03712,-0.01667 0.06818,-0.05711 0.06043,-0.07869 0.06941,-0.189945 0.01007,-0.110412 -0.01969,-0.2323 -0.02951,-0.119956 -0.09128,-0.238625 -0.06261,-0.117576 -0.144779,-0.211945 l -0.350454,-0.401152 0.147713,-0.192365 z"
         style="font-style:italic;font-variant:normal;font-weight:normal;font-stretch:normal;font-size:2.82222223px;line-height:0;font-family:Consolas;-inkscape-font-specification:'Consolas Italic';word-spacing:-0.13493749px;fill:#4d4d4d;stroke-width:0.26458332"
         id="path2760"
         inkscape:connector-curvature="0" />
      <path
         d="m 71.069333,40.554042 q 0.0674,-0.102241 0.135135,-0.176924 0.06773,-0.07468 0.149664,-0.137684 0.218482,-0.168003 0.413744,-0.158223 0.196102,0.01087 0.351505,0.212968 0.127683,0.166046 0.177729,0.339641 0.05089,0.174688 0.03246,0.338356 -0.01843,0.163669 -0.101045,0.307162 -0.08178,0.144585 -0.218328,0.249587 -0.07865,0.06048 -0.166548,0.108946 -0.08899,0.04931 -0.180993,0.0766 l -0.09886,-0.198642 q 0.08192,-0.0178 0.170992,-0.06021 0.08991,-0.04132 0.160916,-0.09592 0.110333,-0.08484 0.16026,-0.196244 0.04883,-0.110563 0.04793,-0.231552 -6.3e-5,-0.119897 -0.04424,-0.240642 -0.04443,-0.118813 -0.122548,-0.220407 -0.102482,-0.133274 -0.225823,-0.14447 -0.12334,-0.0112 -0.263168,0.09633 -0.0721,0.05544 -0.138993,0.131216 -0.06799,0.07661 -0.116312,0.160711 z"
         style="font-style:italic;font-variant:normal;font-weight:normal;font-stretch:normal;font-size:2.82222223px;line-height:0;font-family:Consolas;-inkscape-font-specification:'Consolas Italic';word-spacing:-0.13493749px;fill:#4d4d4d;stroke-width:0.26458332"
         id="path2762"
         inkscape:connector-curvature="0" />
      <path
         d="m 70.60246,41.459648 q -0.0074,-0.03573 -0.01571,-0.06659 -0.0096,-0.03033 -0.02123,-0.05833 -0.0576,-0.138725 -0.170971,-0.178194 -0.113373,-0.03947 -0.28646,0.03239 -0.111998,0.0465 -0.214581,0.108489 -0.103855,0.06252 -0.181416,0.120086 l -0.07556,-0.181996 q 0.08488,-0.06508 0.198177,-0.130029 0.111491,-0.06569 0.23367,-0.116416 0.269813,-0.112024 0.448027,-0.04576 0.178742,0.06754 0.273329,0.29535 0.07292,0.175632 0.08266,0.353624 0.0097,0.177991 -0.0389,0.333966 -0.04811,0.157248 -0.152466,0.279657 -0.105099,0.124209 -0.261641,0.189204 -0.108179,0.04492 -0.202746,0.05434 -0.09584,0.0099 -0.172878,-0.01029 -0.07704,-0.02024 -0.132947,-0.06864 -0.05538,-0.04713 -0.08444,-0.117134 -0.03805,-0.09163 -0.02924,-0.181832 0.0075,-0.08967 0.07061,-0.178526 0.06233,-0.08706 0.183813,-0.171812 0.122009,-0.08348 0.311641,-0.162217 z m -0.165915,0.268827 q -0.14127,0.05865 -0.226035,0.113245 -0.08551,0.05639 -0.126809,0.107858 -0.04257,0.05199 -0.04836,0.09916 -0.0058,0.04716 0.01113,0.08789 0.0148,0.03564 0.04201,0.06164 0.02721,0.026 0.0678,0.0375 0.03931,0.01203 0.09094,0.007 0.05036,-0.0045 0.111446,-0.02986 0.08273,-0.03435 0.139826,-0.09088 0.05636,-0.05473 0.08995,-0.128363 0.03412,-0.07236 0.04653,-0.161066 0.01241,-0.08871 0.0052,-0.188679 z"
         style="font-style:italic;font-variant:normal;font-weight:normal;font-stretch:normal;font-size:2.82222223px;line-height:0;font-family:Consolas;-inkscape-font-specification:'Consolas Italic';word-spacing:-0.13493749px;fill:#4d4d4d;stroke-width:0.26458332"
         id="path2764"
         inkscape:connector-curvature="0" />
      <path
         d="m 66.661189,41.427554 q 0.08852,-0.01132 0.174355,-0.01045 0.08461,-6.5e-4 0.15038,0.0064 0.139763,0.01495 0.236564,0.0558 0.09528,0.04207 0.145651,0.115367 0.05037,0.0733 0.05415,0.180417 0.0023,0.108343 -0.04552,0.257066 l -0.19393,0.620925 0.385032,0.04119 -0.06114,0.195801 -0.383661,-0.04104 -0.117191,0.369971 -0.258716,0.03469 0.137489,-0.430166 -0.617969,-0.06611 0.06114,-0.195801 0.616599,0.06596 0.19755,-0.628854 q 0.0293,-0.09249 0.03237,-0.160073 0.0029,-0.06621 -0.0213,-0.111766 -0.02423,-0.04556 -0.07699,-0.0706 -0.05276,-0.02505 -0.13771,-0.03413 -0.0507,-0.0054 -0.128457,-0.004 -0.07791,0.0028 -0.170685,0.015 z"
         style="font-style:italic;font-variant:normal;font-weight:normal;font-stretch:normal;font-size:2.82222223px;line-height:0;font-family:Consolas;-inkscape-font-specification:'Consolas Italic';word-spacing:-0.13493749px;fill:#4d4d4d;stroke-width:0.26458332"
         id="path2766"
         inkscape:connector-curvature="0" />
      <path
         d="m 65.210964,40.94132 0.223612,0.08655 -0.484638,0.759596 q -0.09282,0.14435 -0.08241,0.228172 0.0086,0.08461 0.111434,0.124405 0.08225,0.03184 0.186383,0.0071 0.10285,-0.02521 0.20885,-0.08909 0.105503,-0.0626 0.201967,-0.155296 0.09518,-0.09319 0.162086,-0.19733 l 0.286198,-0.449258 0.223612,0.08655 -1.066568,1.675108 -0.223612,-0.08655 0.308832,-0.484827 0.176636,-0.246372 q -0.06185,0.0529 -0.132863,0.08747 -0.07151,0.03586 -0.145548,0.05153 -0.07582,0.01646 -0.151892,0.01066 -0.07657,-0.0045 -0.14982,-0.03287 -0.204335,-0.07909 -0.241399,-0.235295 -0.03706,-0.156203 0.103505,-0.378116 z"
         style="font-style:italic;font-variant:normal;font-weight:normal;font-stretch:normal;font-size:2.82222223px;line-height:0;font-family:Consolas;-inkscape-font-specification:'Consolas Italic';word-spacing:-0.13493749px;fill:#4d4d4d;stroke-width:0.26458332"
         id="path2768"
         inkscape:connector-curvature="0" />
      <path
         d="m 64.179817,41.06622 q 0.02671,-0.02485 0.04876,-0.04799 0.02094,-0.02396 0.03884,-0.04842 0.08868,-0.121237 0.06357,-0.238629 -0.02511,-0.117392 -0.176378,-0.228035 -0.09788,-0.07159 -0.204108,-0.1271 -0.107343,-0.05632 -0.196807,-0.09273 l 0.116338,-0.159053 q 0.09969,0.03877 0.214006,0.101899 0.114016,0.0612 0.220793,0.139303 0.235798,0.172473 0.271662,0.359195 0.03505,0.187833 -0.110577,0.386927 -0.11227,0.153492 -0.259351,0.254204 -0.147081,0.100713 -0.305646,0.140098 -0.159379,0.0405 -0.318172,0.01484 -0.160719,-0.02536 -0.297527,-0.125429 -0.09454,-0.06915 -0.15168,-0.145092 -0.05825,-0.07675 -0.08094,-0.153106 -0.02269,-0.07635 -0.01033,-0.149266 0.01154,-0.0718 0.05629,-0.132976 0.05858,-0.08008 0.140242,-0.119373 0.08055,-0.0401 0.189245,-0.03231 0.106764,0.0081 0.242263,0.06793 0.134685,0.06095 0.300412,0.182174 z m -0.315896,-0.0023 q -0.123461,-0.09031 -0.21412,-0.134421 -0.09258,-0.04382 -0.158011,-0.05241 -0.06654,-0.0094 -0.109854,0.01014 -0.04331,0.01954 -0.06935,0.05513 -0.02278,0.03114 -0.03088,0.0679 -0.0081,0.03675 0.0031,0.07741 0.01013,0.03984 0.04122,0.08137 0.02998,0.04071 0.08337,0.07976 0.0723,0.05288 0.150257,0.07234 0.07603,0.01976 0.156403,0.01025 0.07956,-0.0084 0.16182,-0.04383 0.08226,-0.03544 0.163981,-0.09347 z"
         style="font-style:italic;font-variant:normal;font-weight:normal;font-stretch:normal;font-size:2.82222223px;line-height:0;font-family:Consolas;-inkscape-font-specification:'Consolas Italic';word-spacing:-0.13493749px;fill:#4d4d4d;stroke-width:0.26458332"
         id="path2770"
         inkscape:connector-curvature="0" />
      <path
         d="m 62.187235,37.702291 0.102105,0.216952 -0.874931,0.215303 q -0.166786,0.04042 -0.217099,0.108266 -0.05215,0.06719 -0.0052,0.166935 0.03756,0.0798 0.129974,0.133778 0.09183,0.05273 0.212631,0.07964 0.119555,0.0275 0.253337,0.02698 0.133196,-0.0018 0.253481,-0.03096 l 0.517155,-0.127641 0.102105,0.216952 -1.92787,0.476306 -0.102105,-0.216952 0.558081,-0.137764 0.297854,-0.05641 q -0.08127,-0.0044 -0.15652,-0.02838 -0.0765,-0.02339 -0.1409,-0.06314 -0.06623,-0.04041 -0.117283,-0.0971 -0.0523,-0.05611 -0.08575,-0.127178 -0.0933,-0.19825 -0.01234,-0.336876 0.08097,-0.138626 0.335842,-0.202227 z"
         style="font-style:italic;font-variant:normal;font-weight:normal;font-stretch:normal;font-size:2.82222223px;line-height:0;font-family:Consolas;-inkscape-font-specification:'Consolas Italic';word-spacing:-0.13493749px;fill:#4d4d4d;stroke-width:0.26458332"
         id="path2772"
         inkscape:connector-curvature="0" />
      <path
         d="m 60.489571,36.704569 q -0.01575,-0.08818 -0.01783,-0.170395 -0.0034,-0.08198 0.0052,-0.159108 l -0.09118,-0.204891 0.788415,0.01739 q 0.02674,8.23e-4 0.07001,9.6e-5 0.04302,-0.0021 0.116375,-0.0068 0.072,-0.0045 0.182702,-0.01163 0.10935,-0.0069 0.26962,-0.01875 l 0.03973,0.222479 -0.319426,0.02205 q 0.179505,0.06453 0.291666,0.183088 0.110561,0.117441 0.13842,0.273447 0.01744,0.09767 -0.002,0.176743 -0.01972,0.07771 -0.07093,0.135852 -0.05257,0.05838 -0.132557,0.09646 -0.07999,0.03808 -0.183089,0.05649 -0.195347,0.03488 -0.375239,0.01521 -0.181491,-0.02078 -0.328051,-0.0968 -0.146559,-0.07602 -0.247092,-0.207846 -0.100775,-0.133187 -0.13469,-0.323108 z m 1.019374,0.3779 q 0.128875,-0.02301 0.194135,-0.08086 0.06526,-0.05785 0.04733,-0.158236 -0.01042,-0.05833 -0.04796,-0.11182 -0.03755,-0.05349 -0.09496,-0.100629 -0.05741,-0.04714 -0.129893,-0.08459 -0.07408,-0.03856 -0.154602,-0.06618 -0.08212,-0.02873 -0.167489,-0.04428 -0.08672,-0.01531 -0.16967,-0.0173 l -0.289387,-0.0057 q -0.01575,0.0686 -0.01855,0.139098 -0.0044,0.06938 0.0058,0.126355 0.01986,0.111239 0.07263,0.187208 0.05276,0.07597 0.124466,0.124756 0.07171,0.04879 0.15717,0.07272 0.08411,0.02417 0.169621,0.0327 0.08527,0.0072 0.164291,0.0029 0.07878,-0.0057 0.137112,-0.01609 z"
         style="font-style:italic;font-variant:normal;font-weight:normal;font-stretch:normal;font-size:2.82222223px;line-height:0;font-family:Consolas;-inkscape-font-specification:'Consolas Italic';word-spacing:-0.13493749px;fill:#4d4d4d;stroke-width:0.26458332"
         id="path2774"
         inkscape:connector-curvature="0" />
      <path
         d="m 61.029853,35.534567 q -0.02563,-0.0077 -0.06775,-0.01672 -0.042,-0.01042 -0.112718,-0.02463 -0.07209,-0.01432 -0.179549,-0.03574 -0.108828,-0.02154 -0.266749,-0.05132 l 0.01881,-0.225214 0.315727,0.06094 q -0.158134,-0.110008 -0.234896,-0.250555 -0.07802,-0.142035 -0.06494,-0.298586 0.01824,-0.218348 0.157642,-0.297971 0.139518,-0.081 0.391958,-0.0074 l 0.868206,0.250907 -0.01996,0.238946 -0.865459,-0.250678 q -0.16467,-0.04833 -0.242152,-0.0147 -0.07874,0.03214 -0.08792,0.142002 -0.0073,0.08789 0.04574,0.180824 0.0532,0.09156 0.144389,0.175236 0.08982,0.08356 0.205962,0.149956 0.116259,0.06502 0.23504,0.09984 l 0.511746,0.147842 -0.01996,0.238946 z"
         style="font-style:italic;font-variant:normal;font-weight:normal;font-stretch:normal;font-size:2.82222223px;line-height:0;font-family:Consolas;-inkscape-font-specification:'Consolas Italic';word-spacing:-0.13493749px;fill:#4d4d4d;stroke-width:0.26458332"
         id="path2776"
         inkscape:connector-curvature="0" />
      <path
         d="m 60.881843,32.926506 q 0.03363,-0.09335 0.06429,-0.154072 0.03113,-0.06202 0.06854,-0.112995 l -0.507883,-0.305997 0.08127,-0.225587 1.145043,0.692253 q 0.02276,0.01406 0.06062,0.03502 0.03832,0.01966 0.104234,0.0522 0.06461,0.03207 0.16413,0.0811 0.09822,0.04857 0.243005,0.1183 l -0.07659,0.212622 -0.28781,-0.140299 q 0.123351,0.145502 0.161385,0.304212 0.0372,0.156946 -0.01651,0.306041 -0.03363,0.09335 -0.08996,0.152147 -0.05587,0.0575 -0.12926,0.08233 -0.07469,0.02436 -0.16301,0.01744 -0.08832,-0.0069 -0.186854,-0.04241 -0.186693,-0.06725 -0.332769,-0.174072 -0.146905,-0.108581 -0.235976,-0.247593 -0.08907,-0.139012 -0.110404,-0.303423 -0.02087,-0.165707 0.04452,-0.347214 z m 0.694789,0.836182 q 0.123165,0.04437 0.208588,0.02681 0.08542,-0.01756 0.119983,-0.113503 0.02008,-0.05575 0.01424,-0.120838 -0.0058,-0.06509 -0.03207,-0.134592 -0.02623,-0.0695 -0.07035,-0.138126 -0.04495,-0.07039 -0.100949,-0.134503 -0.05683,-0.06588 -0.123046,-0.121956 -0.06751,-0.05654 -0.138401,-0.09966 l -0.247933,-0.14937 q -0.04788,0.05159 -0.08549,0.11128 -0.03844,0.05792 -0.05806,0.112375 -0.0383,0.106311 -0.03049,0.198474 0.0078,0.09216 0.0456,0.170224 0.03779,0.07806 0.09991,0.141452 0.06082,0.06292 0.130671,0.112986 0.07032,0.04877 0.140946,0.08446 0.0711,0.0344 0.126846,0.05448 z"
         style="font-style:italic;font-variant:normal;font-weight:normal;font-stretch:normal;font-size:2.82222223px;line-height:0;font-family:Consolas;-inkscape-font-specification:'Consolas Italic';word-spacing:-0.13493749px;fill:#4d4d4d;stroke-width:0.26458332"
         id="path2778"
         inkscape:connector-curvature="0" />
      <path
         d="m 63.714236,31.213704 q -0.185708,0.164436 -0.373957,0.161786 -0.188131,-0.0046 -0.357136,-0.195463 -0.07582,-0.08563 -0.132281,-0.184732 -0.05634,-0.101044 -0.08886,-0.208451 -0.03344,-0.108439 -0.04032,-0.220146 -0.0069,-0.111707 0.01724,-0.219577 0.02412,-0.107871 0.08085,-0.205951 0.05684,-0.100026 0.151758,-0.184072 0.09285,-0.08222 0.186999,-0.121405 0.09426,-0.04113 0.186722,-0.03649 0.09258,0.0027 0.183349,0.05116 0.08986,0.04744 0.173905,0.142354 0.07491,0.0846 0.131249,0.185645 0.05646,0.0991 0.0899,0.207538 0.03252,0.107407 0.0394,0.219114 0.0069,0.111707 -0.01725,0.219577 -0.02309,0.106958 -0.07993,0.206983 -0.05775,0.099 -0.15164,0.182127 z m -0.178932,-1.039803 q -0.110538,-0.124838 -0.224158,-0.134669 -0.11362,-0.0098 -0.226077,0.08974 -0.06397,0.05664 -0.09855,0.127755 -0.0355,0.07008 -0.04515,0.148571 -0.0095,0.07654 0.0021,0.158275 0.01175,0.07979 0.04021,0.157661 0.02858,0.07593 0.07204,0.14788 0.04255,0.07092 0.09371,0.128697 0.110538,0.124837 0.225071,0.1357 0.11362,0.0098 0.226077,-0.08974 0.065,-0.05755 0.09946,-0.126723 0.03458,-0.07112 0.04411,-0.147658 0.0096,-0.07849 -0.0021,-0.158274 -0.01163,-0.08173 -0.04112,-0.158693 -0.02846,-0.07787 -0.07101,-0.148794 -0.04346,-0.07195 -0.09462,-0.129728 z"
         style="font-style:italic;font-variant:normal;font-weight:normal;font-stretch:normal;font-size:2.82222223px;line-height:0;font-family:Consolas;-inkscape-font-specification:'Consolas Italic';word-spacing:-0.13493749px;fill:#4d4d4d;stroke-width:0.26458332"
         id="path2780"
         inkscape:connector-curvature="0" />
      <path
         d="m 64.987232,30.311281 q 0.03817,0.141138 0.03752,0.256998 -3.2e-5,0.117093 -0.04258,0.213837 -0.0407,0.09736 -0.125769,0.176837 -0.08383,0.07886 -0.214504,0.14415 -0.02465,0.01232 -0.05979,0.02833 -0.03513,0.01601 -0.06102,0.02587 l -0.05788,-0.202155 q 0.0604,-0.02094 0.10971,-0.04557 0.146694,-0.0733 0.196645,-0.192225 0.04995,-0.118928 6.98e-4,-0.297662 l -0.26904,-0.991664 -0.39817,0.198948 -0.05356,-0.196607 0.39817,-0.198948 -0.06157,-0.224959 q -0.07326,-0.269949 0.0075,-0.465903 0.08079,-0.195954 0.338426,-0.324685 0.06533,-0.03264 0.146691,-0.06405 0.08259,-0.03202 0.16641,-0.05542 l 0.05295,0.201537 q -0.07827,0.01908 -0.154082,0.04618 -0.07458,0.02648 -0.144842,0.06159 -0.146695,0.0733 -0.194798,0.195923 -0.0481,0.122626 -0.0013,0.296429 l 0.06157,0.224958 0.543631,-0.271628 0.05356,0.196607 -0.542398,0.271013 z m -1.212568,-0.968505 z"
         style="font-style:italic;font-variant:normal;font-weight:normal;font-stretch:normal;font-size:2.82222223px;line-height:0;font-family:Consolas;-inkscape-font-specification:'Consolas Italic';word-spacing:-0.13493749px;fill:#4d4d4d;stroke-width:0.26458332"
         id="path2782"
         inkscape:connector-curvature="0" />
      <path
         d="m 68.375722,29.572675 q -0.117175,0.03559 -0.216997,0.04976 -0.09982,0.01417 -0.203101,0.01029 -0.275413,-0.01036 -0.419372,-0.14264 -0.143907,-0.13366 -0.134327,-0.388417 0.0079,-0.209314 0.08029,-0.37483 0.07247,-0.166893 0.191219,-0.281022 0.11875,-0.11413 0.273986,-0.171726 0.155288,-0.05897 0.327421,-0.0525 0.09915,0.0037 0.197728,0.02261 0.09996,0.01893 0.188171,0.05672 l -0.05087,0.215971 q -0.07439,-0.03865 -0.170009,-0.06293 -0.09557,-0.02566 -0.185076,-0.02902 -0.139083,-0.0052 -0.248669,0.04857 -0.108209,0.05385 -0.184819,0.147499 -0.07656,0.09227 -0.119724,0.213381 -0.04174,0.119784 -0.04655,0.247851 -0.0063,0.168002 0.08141,0.255421 0.08773,0.08742 0.263992,0.09405 0.09089,0.0034 0.19076,-0.01213 0.101251,-0.0155 0.192158,-0.04931 z"
         style="font-style:italic;font-variant:normal;font-weight:normal;font-stretch:normal;font-size:2.82222223px;line-height:0;font-family:Consolas;-inkscape-font-specification:'Consolas Italic';word-spacing:-0.13493749px;fill:#4d4d4d;stroke-width:0.26458332"
         id="path2784"
         inkscape:connector-curvature="0" />
      <path
         d="m 69.889081,29.994655 -0.229115,-0.07071 0.430349,-0.791618 q 0.0825,-0.150485 0.06625,-0.233374 -0.01452,-0.0838 -0.119859,-0.116311 -0.08427,-0.02601 -0.186425,0.0059 -0.100836,0.03234 -0.202111,0.103475 -0.100868,0.06982 -0.190616,0.169035 -0.08843,0.09962 -0.147894,0.208179 l -0.254091,0.468166 -0.229115,-0.07071 0.946853,-1.745572 0.229115,0.07071 -0.274182,0.505231 -0.15898,0.258118 q 0.058,-0.05709 0.126422,-0.09655 0.06883,-0.04077 0.14159,-0.06158 0.07448,-0.02172 0.150775,-0.02125 0.0767,-8.47e-4 0.151752,0.02232 0.209364,0.06461 0.257258,0.217843 0.04789,0.15323 -0.07682,0.384427 z"
         style="font-style:italic;font-variant:normal;font-weight:normal;font-stretch:normal;font-size:2.82222223px;line-height:0;font-family:Consolas;-inkscape-font-specification:'Consolas Italic';word-spacing:-0.13493749px;fill:#4d4d4d;stroke-width:0.26458332"
         id="path2786"
         inkscape:connector-curvature="0" />
      <path
         d="m 71.769933,29.412078 q 0.07579,0.04774 0.137972,0.10157 0.06292,0.05266 0.114129,0.11098 l 0.21287,0.07057 -0.543801,0.571123 q -0.01862,0.01922 -0.04722,0.05169 -0.02743,0.03321 -0.07336,0.0906 -0.04519,0.05622 -0.114441,0.142893 -0.06852,0.0855 -0.16771,0.211943 l -0.191222,-0.120455 0.198815,-0.250981 q -0.168591,0.08924 -0.331765,0.09231 -0.161273,0.0026 -0.295362,-0.08182 -0.08395,-0.05288 -0.129287,-0.120528 -0.04417,-0.06691 -0.05266,-0.143922 -0.0078,-0.07818 0.01796,-0.162953 0.02572,-0.08478 0.08154,-0.173393 0.105766,-0.167902 0.241452,-0.28764 0.137587,-0.12017 0.292479,-0.177322 0.154893,-0.05715 0.32005,-0.04269 0.166323,0.01519 0.329562,0.118022 z m -0.965843,0.499078 q -0.06978,0.110769 -0.07096,0.19797 -0.0012,0.0872 0.0851,0.141553 0.05014,0.03158 0.114965,0.03985 0.06483,0.0083 0.138339,-0.0024 0.07351,-0.0107 0.150009,-0.03906 0.0784,-0.02879 0.153038,-0.06972 0.07654,-0.04136 0.145528,-0.09399 0.06972,-0.0538 0.127047,-0.11378 l 0.199109,-0.21008 q -0.04011,-0.05784 -0.09033,-0.10739 -0.04832,-0.04998 -0.09729,-0.08083 -0.09561,-0.06023 -0.187301,-0.07238 -0.09169,-0.01216 -0.176046,0.008 -0.08436,0.02015 -0.159603,0.06721 -0.07451,0.0459 -0.138404,0.103369 -0.06272,0.05821 -0.112752,0.119527 -0.04886,0.06205 -0.08044,0.112192 z"
         style="font-style:italic;font-variant:normal;font-weight:normal;font-stretch:normal;font-size:2.82222223px;line-height:0;font-family:Consolas;-inkscape-font-specification:'Consolas Italic';word-spacing:-0.13493749px;fill:#4d4d4d;stroke-width:0.26458332"
         id="path2788"
         inkscape:connector-curvature="0" />
      <path
         d="m 72.270827,30.59918 q 0.02294,-0.01377 0.05801,-0.03878 0.036,-0.02401 0.09415,-0.06668 0.05916,-0.04362 0.147402,-0.108573 0.08925,-0.06589 0.217677,-0.162499 l 0.153718,0.165668 -0.257792,0.192202 q 0.187842,-0.0427 0.343412,-0.0047 0.157517,0.03807 0.26437,0.153231 0.149033,0.160617 0.113919,0.317269 -0.03418,0.157663 -0.258696,0.294554 l -0.770452,0.472377 -0.163092,-0.175769 0.768432,-0.470503 q 0.146673,-0.0891 0.17404,-0.169007 0.02932,-0.07984 -0.04567,-0.160651 -0.05999,-0.06465 -0.164423,-0.08806 -0.103498,-0.0224 -0.226772,-0.01141 -0.122263,0.01005 -0.249588,0.05112 -0.126387,0.04208 -0.232154,0.106377 L 71.78323,31.1738 71.620138,30.99803 Z"
         style="font-style:italic;font-variant:normal;font-weight:normal;font-stretch:normal;font-size:2.82222223px;line-height:0;font-family:Consolas;-inkscape-font-specification:'Consolas Italic';word-spacing:-0.13493749px;fill:#4d4d4d;stroke-width:0.26458332"
         id="path2790"
         inkscape:connector-curvature="0" />
      <path
         d="m 73.233863,33.107924 q -0.08947,-0.08361 -0.151725,-0.162921 -0.06225,-0.07931 -0.110602,-0.170655 -0.128939,-0.243587 -0.08652,-0.434435 0.04364,-0.191493 0.268959,-0.310761 0.185126,-0.09799 0.364659,-0.118185 0.180751,-0.02084 0.339002,0.02481 0.158252,0.04565 0.285838,0.15118 0.128803,0.10489 0.20939,0.257132 0.04642,0.08769 0.07944,0.182474 0.03366,0.096 0.04512,0.191284 l -0.212419,0.0641 q -0.0038,-0.08375 -0.03065,-0.178674 -0.02564,-0.09557 -0.06755,-0.174736 -0.06511,-0.123012 -0.166553,-0.190933 -0.100794,-0.0667 -0.220218,-0.08613 -0.118206,-0.02007 -0.244654,0.0032 -0.124584,0.02385 -0.237852,0.0838 -0.148588,0.07865 -0.180333,0.198362 -0.03174,0.11971 0.05078,0.275605 0.04255,0.08038 0.106018,0.15905 0.06411,0.07988 0.138903,0.141642 z"
         style="font-style:italic;font-variant:normal;font-weight:normal;font-stretch:normal;font-size:2.82222223px;line-height:0;font-family:Consolas;-inkscape-font-specification:'Consolas Italic';word-spacing:-0.13493749px;fill:#4d4d4d;stroke-width:0.26458332"
         id="path2792"
         inkscape:connector-curvature="0" />
      <path
         d="m 74.047603,33.721075 q -0.03646,0.0012 -0.06829,0.0042 -0.03152,0.0043 -0.06108,0.01107 -0.146464,0.03332 -0.204531,0.138388 -0.05807,0.10507 -0.0165,0.287815 0.0269,0.118246 0.07066,0.229831 0.04406,0.112929 0.08769,0.199105 l -0.192151,0.04371 q -0.0498,-0.09466 -0.09466,-0.217306 -0.0459,-0.120991 -0.07524,-0.249987 -0.0648,-0.284867 0.03063,-0.449314 0.09678,-0.164753 0.337304,-0.219468 0.185432,-0.04218 0.362508,-0.02169 0.177076,0.02049 0.322585,0.09479 0.146852,0.074 0.249858,0.197546 0.104655,0.124584 0.142253,0.28986 0.02598,0.114215 0.01928,0.209013 -0.0064,0.09614 -0.03936,0.168651 -0.03297,0.07251 -0.09013,0.119431 -0.05582,0.04662 -0.129722,0.06343 -0.09675,0.02201 -0.184158,-0.0019 -0.0871,-0.02258 -0.164021,-0.09977 -0.07527,-0.07615 -0.138266,-0.210211 -0.06166,-0.134365 -0.107202,-0.334578 z m 0.236911,0.20897 q 0.03393,0.149152 0.07341,0.241925 0.04113,0.09381 0.08487,0.143217 0.04405,0.05075 0.08956,0.06442 0.04551,0.01367 0.08851,0.0039 0.03762,-0.0086 0.06785,-0.03098 0.03023,-0.02242 0.04843,-0.06048 0.0185,-0.03671 0.02228,-0.08845 0.0041,-0.05039 -0.01059,-0.11489 -0.01987,-0.08734 -0.06594,-0.153177 -0.04442,-0.0648 -0.11131,-0.110351 -0.06555,-0.04586 -0.150884,-0.07308 -0.08533,-0.02723 -0.185081,-0.03704 z"
         style="font-style:italic;font-variant:normal;font-weight:normal;font-stretch:normal;font-size:2.82222223px;line-height:0;font-family:Consolas;-inkscape-font-specification:'Consolas Italic';word-spacing:-0.13493749px;fill:#4d4d4d;stroke-width:0.26458332"
         id="path2794"
         inkscape:connector-curvature="0" />
    </g>
  </g>
  <g
     inkscape:groupmode="layer"
     id="layer3"
     inkscape:label="widgets"
     style="display:none"
     transform="translate(-0.092329,-0.09232877)">
    <rect
       style="opacity:1;vector-effect:none;fill:#ffff00;fill-opacity:0.50196078;fill-rule:evenodd;stroke:none;stroke-width:0.1720985;stroke-linecap:round;stroke-linejoin:miter;stroke-miterlimit:4;stroke-dasharray:none;stroke-dashoffset:0;stroke-opacity:1;paint-order:normal"
       id="rect33077"
       width="35.54866"
       height="61.743008"
       x="3.0216446"
       y="20.316027" />
    <g
       style="display:inline;enable-background:new"
       inkscape:label="Layer 1"
       id="g2715"
       transform="translate(-88.568882,0.90150117)">
      <path
         inkscape:connector-curvature="0"
         style="fill:#ff0000;fill-opacity:1;fill-rule:nonzero;stroke:#800000;stroke-width:0.56692916;stroke-miterlimit:4;stroke-dasharray:none;stroke-opacity:1"
         d="m 15.791016,0.47265625 c -8.447921,0 -15.31835975,6.87051055 -15.31835975,15.31835975 0,8.448 6.87043875,15.316406 15.31835975,15.316406 8.447909,0 15.316406,-6.868406 15.316406,-15.316406 0,-8.4478492 -6.868497,-15.31835975 -15.316406,-15.31835975 z m 0,4.28710935 c 6.083334,0 11.03125,4.9479492 11.03125,11.0312504 0,6.083338 -4.947916,11.03125 -11.03125,11.03125 -6.0833314,0 -11.0312504,-4.947912 -11.0312504,-11.03125 0,-6.0833012 4.947919,-11.0312504 11.0312504,-11.0312504 z"
         transform="matrix(0.26458333,0,0,0.26458333,88.611154,119.19859)"
         id="path2711" />
      <path
         inkscape:connector-curvature="0"
         id="path2713"
         d="m 94.588681,123.3764 c 0,0.99357 -0.806153,1.79974 -1.799717,1.79974 -0.993567,0 -1.79972,-0.80617 -1.79972,-1.79974 0,-0.99356 0.806153,-1.79969 1.79972,-1.79969 0.993564,0 1.799717,0.80613 1.799717,1.79969"
         style="fill:#000000;fill-opacity:1;fill-rule:nonzero;stroke:none;stroke-width:0.35277775" />
    </g>
  </g>
</svg>
